<svg width="80" height="18" viewBox="0 0 80 18" fill="none" xmlns="http://www.w3.org/2000/svg">
<path fill-rule="evenodd" clip-rule="evenodd" d="M44.5887 12.9576C45.3802 12.2226 45.7745 11.2705 45.7745 10.1004C45.7745 9.14937 45.5046 8.35238 44.9639 7.71562C44.4212 7.07678 43.5775 6.51961 42.4289 6.04307C41.4899 5.66163 40.8428 5.3081 40.4867 4.98145C40.0774 4.62792 39.8738 4.17826 39.8738 3.63453C39.8738 3.14351 40.0523 2.729 40.4085 2.38891C40.8298 2.0085 41.4177 1.81726 42.1701 1.81726C43.1221 1.81726 43.9728 2.02814 44.7252 2.44989L45.2599 0.653305C44.4543 0.218113 43.4451 0 42.2303 0C40.8679 0 39.7785 0.360765 38.9619 1.08333C38.1423 1.80486 37.733 2.7321 37.733 3.86298C37.733 5.59341 38.9007 6.90932 41.2381 7.80762C42.0968 8.1353 42.7118 8.48986 43.0799 8.8713C43.4501 9.25274 43.6347 9.72308 43.6347 10.2813C43.6347 10.9077 43.411 11.4101 42.9626 11.7843C42.5121 12.1585 41.8852 12.3466 41.0796 12.3466C39.957 12.3466 38.9268 12.0531 37.9878 11.468L37.4922 13.3049C38.364 13.8765 39.5156 14.1618 40.9522 14.1618C42.5081 14.1618 43.719 13.7608 44.5887 12.9576ZM11.2709 13.9583H8.99267L7.74471 9.91749H3.40694L2.21816 13.9583H0.00012207L4.29777 0.201644H6.9522L11.2709 13.9583ZM7.36868 8.22229L6.2401 4.63015C6.12072 4.26318 5.89701 3.399 5.56696 2.03863H5.52683C5.39542 2.62371 5.18374 3.4879 4.89282 4.63015L3.7843 8.22229H7.36868ZM20.9951 12.8758C21.8799 11.8969 22.3223 10.5634 22.3223 8.87642C22.3223 7.36616 21.9431 6.14845 21.1827 5.22225C20.4243 4.29708 19.4763 3.83501 18.3407 3.83501C16.8881 3.83501 15.8056 4.42629 15.0924 5.61092H15.0522L14.9329 4.03865H13.0519C13.104 5.15506 13.1311 6.24356 13.1311 7.30414V17.9999H15.2699V12.7745H15.31C15.8648 13.7131 16.7757 14.1825 18.0437 14.1825C19.2185 14.1825 20.2026 13.7473 20.9951 12.8758ZM20.1441 8.95707C20.1441 7.99158 19.9334 7.19562 19.5101 6.5692C19.0476 5.91589 18.4266 5.58924 17.6482 5.58924C17.1205 5.58924 16.641 5.77117 16.2126 6.12987C15.7832 6.49167 15.5023 6.96407 15.3709 7.54915C15.3047 7.82205 15.2716 8.04533 15.2716 8.22106V9.875C15.2716 10.5965 15.4863 11.2054 15.9157 11.7026C16.345 12.1998 16.9028 12.4479 17.589 12.4479C18.3945 12.4479 19.0215 12.1275 19.4699 11.4886C19.9194 10.8488 20.1441 10.0052 20.1441 8.95707ZM32.0663 12.8758C32.9521 11.8969 33.3946 10.5634 33.3946 8.87642C33.3946 7.36616 33.0143 6.14845 32.2569 5.22225C31.4965 4.29708 30.5485 3.83501 29.4139 3.83501C27.9603 3.83501 26.8779 4.42629 26.1656 5.61092H26.1255L26.0061 4.03865H24.1251C24.1773 5.15506 24.2044 6.24356 24.2044 7.30414V17.9999H26.3432V12.7745H26.3833C26.937 13.7131 27.8479 14.1825 29.116 14.1825C30.2907 14.1825 31.2748 13.7473 32.0663 12.8758ZM31.2163 8.95707C31.2163 7.99158 31.0047 7.19562 30.5813 6.5692C30.1189 5.91589 29.4999 5.58924 28.7204 5.58924C28.1917 5.58924 27.7132 5.77117 27.2839 6.12987C26.8545 6.49167 26.5746 6.96407 26.4432 7.54915C26.378 7.82205 26.3439 8.04533 26.3439 8.22106V9.875C26.3439 10.5965 26.5586 11.2054 26.9859 11.7026C27.4153 12.1988 27.973 12.4479 28.6612 12.4479C29.4668 12.4479 30.0938 12.1275 30.5422 11.4886C30.9916 10.8488 31.2163 10.0052 31.2163 8.95707ZM52.8461 5.69276H50.4887V10.5088C50.4887 11.7338 50.904 12.3457 51.7366 12.3457C52.1188 12.3457 52.4358 12.3116 52.6866 12.2434L52.7458 13.917C52.3245 14.0793 51.7697 14.1609 51.0825 14.1609C50.2379 14.1609 49.5778 13.8953 49.1012 13.365C48.6267 12.8336 48.388 11.9426 48.388 10.6908V5.69069H46.9835V4.03676H48.388V2.22053L50.4887 1.56722V4.03676H52.8461V5.69276ZM62.2147 12.6722C63.0594 11.6933 63.4828 10.4414 63.4828 8.91672C63.4828 7.43335 63.0735 6.22287 62.2529 5.2853C61.3951 4.31878 60.2585 3.83603 58.8461 3.83603C57.3804 3.83603 56.2147 4.32601 55.351 5.30597C54.4852 6.28489 54.0538 7.54395 54.0538 9.08108C54.0538 10.55 54.4732 11.7687 55.3118 12.7342C56.1505 13.6997 57.2751 14.1824 58.6875 14.1824C60.1532 14.1824 61.3289 13.6801 62.2147 12.6722ZM61.2635 8.98813C61.2635 8.0733 61.0739 7.28871 60.6896 6.63437C60.2412 5.84255 59.6002 5.44767 58.7695 5.44767C57.9098 5.44767 57.2567 5.84359 56.8083 6.63437C56.4241 7.28975 56.2345 8.08674 56.2345 9.02948C56.2345 9.94431 56.4241 10.7289 56.8083 11.3822C57.2708 12.174 57.9168 12.5689 58.7505 12.5689C59.5671 12.5689 60.2081 12.1658 60.6706 11.3615C61.0648 10.6948 61.2635 9.90193 61.2635 8.98813ZM69.7605 5.91588C69.9973 5.91588 70.223 5.93656 70.4347 5.97687V3.87534C70.2762 3.8495 70.0976 3.83503 69.9 3.83503C69.3452 3.83503 68.8306 4.01179 68.354 4.36635C67.8665 4.7602 67.5104 5.28532 67.2847 5.93759H67.2255L67.1472 4.0397H65.2843C65.3375 4.97831 65.3646 6.01926 65.3646 7.16254L65.3445 13.9582H67.4823V8.75342C67.4823 7.9647 67.6609 7.31139 68.017 6.79454C68.4263 6.20842 69.0081 5.91588 69.7605 5.91588ZM79.9996 8.52904C79.9996 8.92391 79.9745 9.25677 79.9214 9.52863H73.505C73.5301 10.5086 73.8401 11.258 74.436 11.7749C74.9767 12.237 75.6759 12.4685 76.5346 12.4685C77.4846 12.4685 78.3514 12.3124 79.1309 11.9992L79.4659 13.5291C78.555 13.9384 77.4796 14.1421 76.2387 14.1421C74.7459 14.1421 73.5742 13.6893 72.7215 12.7848C71.8708 11.8803 71.4445 10.6657 71.4445 9.14203C71.4445 7.64625 71.8407 6.40063 72.6342 5.40723C73.4649 4.34664 74.5874 3.81635 75.9999 3.81635C77.3873 3.81635 78.4377 4.34664 79.1509 5.40723C79.7157 6.2497 79.9996 7.29168 79.9996 8.52904ZM77.5458 6.26317C77.8357 6.73971 77.9752 7.30412 77.9611 7.95742V7.95639H73.506C73.5712 7.29068 73.7829 6.71904 74.139 6.2425C74.5734 5.64294 75.1422 5.3442 75.8414 5.3442C76.6068 5.3442 77.1756 5.65018 77.5458 6.26317Z" fill="white"/>
</svg>
