<svg width="21" height="24" viewBox="0 0 21 24" fill="none" xmlns="http://www.w3.org/2000/svg">
<path d="M17.5399 12.7629C17.5106 9.7309 20.2099 8.25581 20.3334 8.18713C18.8046 6.11466 16.4351 5.83149 15.6024 5.80892C13.6123 5.61418 11.6819 6.91618 10.6681 6.91618C9.63411 6.91618 8.07298 5.82773 6.39044 5.85972C4.22529 5.89076 2.19977 7.05635 1.08886 8.86635C-1.20376 12.5569 0.506094 17.9803 2.70261 20.9635C3.80137 22.4244 5.08528 24.0557 6.7658 23.9983C8.40989 23.9353 9.02402 23.0237 11.0081 23.0237C12.9739 23.0237 13.5506 23.9983 15.2645 23.9616C17.029 23.9353 18.1399 22.4941 19.2002 21.0199C20.47 19.3454 20.9799 17.6962 21.0001 17.6116C20.9586 17.5984 17.5733 16.3971 17.5399 12.7629Z" fill="white"/>
<path d="M14.3023 3.84673C15.1866 2.81849 15.7916 1.41959 15.6236 0C14.3438 0.052682 12.7432 0.823156 11.8215 1.82882C11.006 2.715 10.2775 4.16752 10.4657 5.53349C11.9034 5.63321 13.3796 4.85897 14.3023 3.84673Z" fill="white"/>
</svg>
