<svg width="25" height="25" viewBox="0 0 25 25" fill="none" xmlns="http://www.w3.org/2000/svg">
<path fill-rule="evenodd" clip-rule="evenodd" d="M7.495 11.0029C8.935 13.8329 11.255 16.1429 14.085 17.5929L16.285 15.3929C16.555 15.1229 16.955 15.0329 17.305 15.1529C18.425 15.5229 19.635 15.7229 20.875 15.7229C21.425 15.7229 21.875 16.1729 21.875 16.7229V20.2129C21.875 20.7629 21.425 21.2129 20.875 21.2129C11.485 21.2129 3.875 13.6029 3.875 4.21289C3.875 3.66289 4.325 3.21289 4.875 3.21289H8.375C8.925 3.21289 9.375 3.66289 9.375 4.21289C9.375 5.46289 9.575 6.66289 9.945 7.78289C10.055 8.13289 9.975 8.52289 9.695 8.80289L7.495 11.0029V11.0029Z" fill="white"/>
<mask id="mask0_208_171" style="mask-type:luminance" maskUnits="userSpaceOnUse" x="3" y="3" width="19" height="19">
<path fill-rule="evenodd" clip-rule="evenodd" d="M7.495 11.0029C8.935 13.8329 11.255 16.1429 14.085 17.5929L16.285 15.3929C16.555 15.1229 16.955 15.0329 17.305 15.1529C18.425 15.5229 19.635 15.7229 20.875 15.7229C21.425 15.7229 21.875 16.1729 21.875 16.7229V20.2129C21.875 20.7629 21.425 21.2129 20.875 21.2129C11.485 21.2129 3.875 13.6029 3.875 4.21289C3.875 3.66289 4.325 3.21289 4.875 3.21289H8.375C8.925 3.21289 9.375 3.66289 9.375 4.21289C9.375 5.46289 9.575 6.66289 9.945 7.78289C10.055 8.13289 9.975 8.52289 9.695 8.80289L7.495 11.0029V11.0029Z" fill="white"/>
</mask>
<g mask="url(#mask0_208_171)">
<rect x="0.875" y="0.212891" width="24" height="24" fill="white"/>
</g>
</svg>
