<svg width="113" height="60" viewBox="0 0 113 60" fill="none" xmlns="http://www.w3.org/2000/svg">
<g clip-path="url(#clip0_208_375)">
<g clip-path="url(#clip1_208_375)">
<path d="M79.3524 26.6216H60.9748V45.1213H79.3524V26.6216Z" fill="white"/>
<path d="M53.7315 26.6216H32.9244V45.1213H53.7315V26.6216Z" fill="white"/>
<path d="M25.9448 26.6216H5.13773V45.1213H25.9448V26.6216Z" fill="white"/>
<path d="M107.237 26.6216H86.4299V45.1213H107.237V26.6216Z" fill="white"/>
<path d="M15.5337 31.4141H13.6316V42.1484H15.5827C18.5621 42.1484 19.8127 40.4611 19.8127 36.7073C19.8164 33.1545 18.4115 31.4141 15.5337 31.4141Z" fill="#068EA9"/>
<path d="M2.95683 45.1212H7.37513V42.1485H8.87803V31.4142H7.37513V28.5666H15.9857C21.7676 28.5666 24.7696 31.4407 24.7696 37.0335C24.7696 42.2243 21.8919 45.1212 16.7353 45.1212H28.5513V3.58301H2.95683V45.1212Z" fill="#068EA9"/>
<path d="M41.0303 37.6629H44.7329L42.8797 32.146L41.0303 37.6629Z" fill="#676666"/>
<path d="M30.122 45.1212H34.1938V42.1485H35.1731L40.5293 28.5666H46.0098L51.3397 42.1485H52.3152V45.1212H55.7165V3.58301H30.122V45.1212Z" fill="#676666"/>
<path d="M46.3865 42.1484L45.7838 40.3359H39.9267L39.3278 42.1484H41.0529V45.1211H44.6576V42.1484H46.3865Z" fill="#676666"/>
<path d="M57.2835 45.1212H65.4797V42.1485H67.5062V31.4142H65.4044V34.6144H61.7507V28.5666H77.97V34.6144H74.3389V31.4142H72.2635V42.1485H74.1167V45.1212H82.878V3.58301H57.2835V45.1212Z" fill="#676666"/>
<path d="M100.374 42.1484L99.7715 40.3359H93.9143L93.3154 42.1484H95.0405V45.1211H98.6452V42.1484H100.374Z" fill="#676666"/>
<path d="M110.043 3.58301H84.4449V45.1212H88.1852V42.1485H89.1608L94.517 28.5666H99.9975L105.327 42.1485H106.307V45.1212H110.043V3.58301Z" fill="#676666"/>
<path d="M95.0179 37.6629H98.7206L96.8674 32.146L95.0179 37.6629Z" fill="#676666"/>
<path d="M3.97007 49.1059H3.0284V48.3286H5.6839L7.77817 54.547L9.89503 48.3286H12.5618V49.1059H11.575V55.1044H12.5618V55.8817H9.5937V55.1044H10.5919V49.1059H10.5241L8.16237 55.8817H7.3224L4.99083 49.1059H4.95693V55.1044H5.8986V55.8817H3.0284V55.1044H3.97007V49.1059Z" fill="white"/>
<path d="M17.0856 54.9758C16.6826 55.6848 16.1326 56.0223 15.3492 56.0223C14.1062 56.0223 13.4018 55.3701 13.4018 54.3615C13.4018 53.2468 14.287 52.6742 16.046 52.6742C16.2795 52.6742 16.6185 52.6856 17.0442 52.697V52.3026C17.0442 51.4988 16.6637 51.1386 15.7786 51.1386C15.029 51.1386 14.6599 51.4533 14.5695 52.151H13.6052C13.7182 51.0362 14.4791 50.4409 15.8577 50.4409C17.2476 50.4409 17.9519 51.0703 17.9519 52.2989V55.1806H18.8032V55.8782H17.0894V54.9758H17.0856ZM16.1891 53.3719C14.9574 53.3719 14.3623 53.698 14.3623 54.4412C14.3623 54.9303 14.754 55.2678 15.4245 55.2678C16.4001 55.2678 17.0366 54.627 17.0366 53.5236V53.406C16.6826 53.3833 16.3925 53.3719 16.1891 53.3719Z" fill="white"/>
<path d="M21.8467 55.1844V55.8821H19.1347V55.1844H19.9859V49.0229H19.1347V48.3252H20.8937V53.0345L22.8863 51.2789H22.1254V50.5813H24.6679V51.2789H23.9748L22.5736 52.5112L24.1858 55.1844H24.747V55.8821H22.4832V55.1844H23.1311L21.8994 53.1141L20.8899 53.9862V55.1844H21.8467Z" fill="white"/>
<path d="M30.2802 54.2326C30.0467 55.4081 29.2067 56.0223 27.8168 56.0223C26.2047 56.0223 25.2404 54.9417 25.2404 53.2316C25.2404 51.5708 26.2725 50.4409 27.8394 50.4409C29.4855 50.4409 30.4271 51.5216 30.4271 53.4629H26.2009C26.2348 54.6383 26.8601 55.3246 27.847 55.3246C28.7208 55.3246 29.2934 54.9075 29.4252 54.2326H30.2802ZM29.4629 52.7652C29.3273 51.696 28.7585 51.1386 27.8394 51.1386C26.9204 51.1386 26.3064 51.7301 26.2273 52.7652H29.4629Z" fill="white"/>
<path d="M31.4215 54.0578H32.1485C32.2841 54.8465 32.8077 55.2674 33.5949 55.2674C34.3558 55.2674 34.8153 54.8958 34.8153 54.3839C34.8153 53.9441 34.5253 53.7431 33.8171 53.6407L32.8642 53.5005C31.9677 53.3602 31.4856 52.8597 31.4856 52.1051C31.4856 51.142 32.2464 50.4443 33.4329 50.4443C34.126 50.4443 34.6307 50.6756 34.966 51.1761V50.5808H35.6138V52.3364H34.9848C34.9283 51.5932 34.3671 51.1989 33.6175 51.1989C32.8227 51.1989 32.3858 51.4795 32.3858 52.0027C32.3858 52.3629 32.608 52.5829 33.0789 52.6549L33.9753 52.7838C35.1618 52.9582 35.7118 53.4132 35.7118 54.365C35.7118 55.3281 34.9848 56.0257 33.7757 56.0257C33.0487 56.0257 32.5101 55.7565 32.1071 55.2105V55.8854H31.414V54.0578H31.4215Z" fill="white"/>
<path d="M39.2637 51.2787V50.5811H40.2732V49.4549L41.181 49.0947V50.5811H42.7705V51.2787H41.181V54.5586C41.181 55.0818 41.2375 55.2676 41.6744 55.2676C42.1339 55.2676 42.3562 54.987 42.3562 54.3273H43.0266V54.4334C43.0266 55.4572 42.5332 56.026 41.6819 56.026C40.6951 56.026 40.2694 55.6316 40.2694 54.7254V51.2863H39.2637V51.2787Z" fill="white"/>
<path d="M47.0457 50.4409C48.2887 50.4409 48.8386 51.0551 48.8386 52.3481V55.1843H49.6899V55.882H46.9892V55.1843H47.9308V52.3481C47.9308 51.5442 47.5617 51.1385 46.8234 51.1385C45.9383 51.1385 45.313 51.768 45.313 52.8107V55.1805H46.266V55.8782H43.554V55.1805H44.4052V49.019H43.554V48.3213H45.313V51.4115C45.8027 50.7442 46.3413 50.4409 47.0457 50.4409Z" fill="white"/>
<path d="M55.2457 54.2326C55.0122 55.4081 54.1722 56.0223 52.7823 56.0223C51.1702 56.0223 50.2059 54.9417 50.2059 53.2316C50.2059 51.5708 51.238 50.4409 52.8049 50.4409C54.4509 50.4409 55.3926 51.5216 55.3926 53.4629H51.1702C51.2041 54.6383 51.8293 55.3246 52.8162 55.3246C53.6901 55.3246 54.2626 54.9075 54.3944 54.2326H55.2457ZM54.4283 52.7652C54.2927 51.696 53.724 51.1386 52.8049 51.1386C51.8858 51.1386 51.2719 51.7301 51.1928 52.7652H54.4283Z" fill="white"/>
<path d="M59.0425 55.101H60.0407V49.1025H59.0425V48.3252H62.2668C64.7415 48.3252 66.0975 49.675 66.0975 52.1017C66.0975 54.5322 64.7415 55.8783 62.2668 55.8783H59.0425V55.101ZM62.2668 55.101C64.0371 55.101 65.0654 53.9862 65.0654 52.1017C65.0654 50.1831 64.0333 49.1025 62.2668 49.1025H61.0238V55.101H62.2668Z" fill="white"/>
<path d="M66.896 55.1844H67.7699V51.2789H66.896V50.5813H68.6776V55.1844H69.5289V55.8821H66.896V55.1844ZM67.6908 48.3252H68.6776V49.3717H67.6908V48.3252Z" fill="white"/>
<path d="M72.8737 55.1842V55.8819H70.0412V55.1842H70.8924V51.2787H69.9395V50.581H70.8924V50.3952C70.8924 48.8824 71.3972 48.1885 72.6402 48.1885C72.8737 48.1885 73.1901 48.2226 73.5592 48.2681V49.0568C73.2127 48.9999 72.9302 48.9392 72.7645 48.9392C72.1166 48.9392 71.8002 49.3563 71.8002 50.1602V50.5773H72.998V51.2749H71.8002V55.1804H72.8737V55.1842Z" fill="white"/>
<path d="M76.2336 55.1842V55.8819H73.401V55.1842H74.2523V51.2787H73.2993V50.581H74.2523V50.3952C74.2523 48.8824 74.757 48.1885 76 48.1885C76.2336 48.1885 76.55 48.2226 76.9191 48.2681V49.0568C76.5726 48.9999 76.2901 48.9392 76.1243 48.9392C75.4765 48.9392 75.1601 49.3563 75.1601 50.1602V50.5773H76.3579V51.2749H75.1601V55.1804H76.2336V55.1842Z" fill="white"/>
<path d="M81.8572 54.2326C81.6237 55.4081 80.7837 56.0223 79.3938 56.0223C77.7817 56.0223 76.8174 54.9417 76.8174 53.2316C76.8174 51.5708 77.8495 50.4409 79.4164 50.4409C81.0624 50.4409 82.0041 51.5216 82.0041 53.4629H77.7817C77.8156 54.6383 78.4408 55.3246 79.4277 55.3246C80.3016 55.3246 80.8741 54.9075 81.0059 54.2326H81.8572ZM81.0398 52.7652C80.9042 51.696 80.3355 51.1386 79.4164 51.1386C78.4973 51.1386 77.8834 51.7301 77.8043 52.7652H81.0398Z" fill="white"/>
<path d="M85.5109 55.184V55.8817H82.667V55.184H83.5183V51.2785H82.667V50.5809H84.3922V51.4643C84.7952 50.7325 85.3112 50.4292 86.1173 50.4292C86.2077 50.4292 86.2981 50.4292 86.3847 50.4406V51.3013C86.2604 51.2899 86.1512 51.1838 86.0382 51.1838C84.9647 51.1838 84.4261 51.9383 84.4261 53.2768V55.184H85.5109Z" fill="white"/>
<path d="M91.7146 54.2326C91.481 55.4081 90.6411 56.0223 89.2512 56.0223C87.6391 56.0223 86.6748 54.9417 86.6748 53.2316C86.6748 51.5708 87.7069 50.4409 89.2738 50.4409C90.9198 50.4409 91.8615 51.5216 91.8615 53.4629H87.6391C87.673 54.6383 88.2982 55.3246 89.2851 55.3246C90.1589 55.3246 90.7315 54.9075 90.8633 54.2326H91.7146ZM90.8972 52.7652C90.7616 51.696 90.1929 51.1386 89.2738 51.1386C88.3547 51.1386 87.7408 51.7301 87.6617 52.7652H90.8972Z" fill="white"/>
<path d="M92.5206 55.1843H93.3719V51.2789H92.5206V50.5812H94.2458V51.4988C94.7166 50.7784 95.2665 50.4409 96.0161 50.4409C97.2591 50.4409 97.809 51.0552 97.809 52.3481V55.1843H98.6716V55.882H95.9596V55.1843H96.9013V52.3481C96.9013 51.5443 96.5321 51.1386 95.7939 51.1386C94.9087 51.1386 94.2834 51.768 94.2834 52.8107V55.1806H95.2364V55.8782H92.5244V55.1843H92.5206Z" fill="white"/>
<path d="M103.979 54.1037C103.809 55.3929 103.048 56.0223 101.692 56.0223C100.171 56.0223 99.1726 54.953 99.1726 53.2202C99.1726 51.5216 100.159 50.4409 101.681 50.4409C102.322 50.4409 102.845 50.695 103.214 51.1955V50.5812H103.885V52.5794H103.207C103.173 51.696 102.612 51.1955 101.738 51.1955C100.762 51.1955 100.137 51.9273 100.137 53.2164C100.137 54.517 100.766 55.264 101.715 55.264C102.487 55.264 103.015 54.8241 103.128 54.0999H103.979V54.1037Z" fill="white"/>
<path d="M109.825 54.2326C109.591 55.4081 108.751 56.0223 107.361 56.0223C105.749 56.0223 104.785 54.9417 104.785 53.2316C104.785 51.5708 105.817 50.4409 107.384 50.4409C109.03 50.4409 109.972 51.5216 109.972 53.4629H105.749C105.783 54.6383 106.408 55.3246 107.395 55.3246C108.269 55.3246 108.842 54.9075 108.973 54.2326H109.825ZM109.007 52.7652C108.872 51.696 108.303 51.1386 107.384 51.1386C106.465 51.1386 105.851 51.7301 105.772 52.7652H109.007Z" fill="white"/>
<path d="M12.5355 24.9343C6.0003 24.9343 1.9549 24.7523 1.9097 24.7485L1.94737 23.9522C1.99633 23.956 7.0399 24.1835 14.965 24.1266C22.2798 24.0774 33.6175 23.7702 46.0814 22.591C68.0712 20.5132 97.8655 15.2692 114.913 2.08545L115.396 2.71866C111.418 5.79753 106.548 8.60719 100.928 11.0718C95.8278 13.3089 89.9894 15.3147 83.5786 17.0324C72.7908 19.9216 60.1951 22.0602 46.1454 23.3873C33.6476 24.5665 22.2874 24.8736 14.9574 24.9229C14.1175 24.9305 13.3076 24.9343 12.5355 24.9343Z" fill="white"/>
<path d="M30.8459 25.6684C31.6814 24.8273 31.6814 23.4637 30.8459 22.6226C30.0104 21.7816 28.6558 21.7816 27.8203 22.6226C26.9848 23.4637 26.9848 24.8273 27.8203 25.6684C28.6558 26.5094 30.0104 26.5094 30.8459 25.6684Z" fill="white"/>
<path d="M58.6205 22.1019C58.774 20.9225 57.9487 19.8412 56.7771 19.6867C55.6056 19.5322 54.5314 20.363 54.3779 21.5423C54.2244 22.7217 55.0498 23.803 56.2213 23.9575C57.3929 24.112 58.467 23.2812 58.6205 22.1019Z" fill="white"/>
<path d="M85.1836 18.1459C86.0191 17.3049 86.0191 15.9412 85.1836 15.1002C84.3481 14.2591 82.9935 14.2591 82.158 15.1002C81.3225 15.9412 81.3225 17.3049 82.158 18.1459C82.9935 18.987 84.3481 18.987 85.1836 18.1459Z" fill="white"/>
</g>
</g>
<defs>
<clipPath id="clip0_208_375">
<rect width="113" height="60" fill="white"/>
</clipPath>
<clipPath id="clip1_208_375">
<rect width="113" height="60" fill="white"/>
</clipPath>
</defs>
</svg>
