<svg width="98" height="52" viewBox="0 0 98 52" fill="none" xmlns="http://www.w3.org/2000/svg">
<g clip-path="url(#clip0_208_232)">
<g clip-path="url(#clip1_208_232)">
<path d="M68.8189 23.0721H52.8808V39.1052H68.8189V23.0721Z" fill="white"/>
<path d="M46.599 23.0721H28.5539V39.1052H46.599V23.0721Z" fill="white"/>
<path d="M22.5008 23.0721H4.45573V39.1052H22.5008V23.0721Z" fill="white"/>
<path d="M93.002 23.0721H74.9569V39.1052H93.002V23.0721Z" fill="white"/>
<path d="M13.4717 27.2257H11.8221V36.5288H13.5142C16.0981 36.5288 17.1827 35.0665 17.1827 31.8132C17.1859 28.7341 15.9675 27.2257 13.4717 27.2257Z" fill="#068EA9"/>
<path d="M2.56433 39.1052H6.39613V36.5288H7.69953V27.2257H6.39613V24.7578H13.8637C18.8781 24.7578 21.4816 27.2487 21.4816 32.0958C21.4816 36.5945 18.9859 39.1052 14.5138 39.1052H24.7613V3.10541H2.56433V39.1052Z" fill="#068EA9"/>
<path d="M35.5838 32.6413H38.7949L37.1877 27.86L35.5838 32.6413Z" fill="#676666"/>
<path d="M26.1235 39.1052H29.6548V36.5288H30.5041L35.1493 24.7578H39.9023L44.5247 36.5288H45.3707V39.1052H48.3205V3.10541H26.1235V39.1052Z" fill="#676666"/>
<path d="M40.229 36.5288L39.7063 34.958H34.6267L34.1073 36.5288H35.6034V39.1052H38.7296V36.5288H40.229Z" fill="#676666"/>
<path d="M49.6795 39.1052H56.7877V36.5288H58.5452V27.2257H56.7224V29.9992H53.5537V24.7578H67.62V29.9992H64.4709V27.2257H62.671V36.5288H64.2782V39.1052H71.8765V3.10541H49.6795V39.1052Z" fill="#676666"/>
<path d="M87.0501 36.5288L86.5275 34.958H81.4478L80.9284 36.5288H82.4245V39.1052H85.5507V36.5288H87.0501Z" fill="#676666"/>
<path d="M95.4357 3.10541H73.2354V39.1052H76.4792V36.5288H77.3253L81.9705 24.7578H86.7235L91.3458 36.5288H92.1951V39.1052H95.4357V3.10541Z" fill="#676666"/>
<path d="M82.4049 32.6413H85.6161L84.0089 27.86L82.4049 32.6413Z" fill="#676666"/>
<path d="M3.44307 42.5589H2.6264V41.8852H4.9294L6.74567 47.2745L8.58153 41.8852H10.8943V42.5589H10.0385V47.7576H10.8943V48.4312H8.3202V47.7576H9.18587V42.5589H9.12707L7.07887 48.4312H6.3504L4.32833 42.5589H4.29893V47.7576H5.1156V48.4312H2.6264V47.7576H3.44307V42.5589Z" fill="white"/>
<path d="M14.8176 47.6458C14.4681 48.2603 13.9911 48.5528 13.3117 48.5528C12.2337 48.5528 11.6228 47.9876 11.6228 47.1135C11.6228 46.1474 12.3905 45.6511 13.916 45.6511C14.1185 45.6511 14.4125 45.661 14.7817 45.6709V45.3291C14.7817 44.6324 14.4517 44.3203 13.6841 44.3203C13.034 44.3203 12.7139 44.593 12.6355 45.1977H11.7992C11.8972 44.2315 12.5571 43.7156 13.7527 43.7156C14.9581 43.7156 15.5689 44.2611 15.5689 45.3258V47.8233H16.3072V48.4279H14.8209V47.6458H14.8176ZM14.0401 46.2558C12.9719 46.2558 12.4558 46.5384 12.4558 47.1825C12.4558 47.6064 12.7955 47.8989 13.377 47.8989C14.2231 47.8989 14.7751 47.3435 14.7751 46.3872V46.2854C14.4681 46.2657 14.2165 46.2558 14.0401 46.2558Z" fill="white"/>
<path d="M18.9467 47.8266V48.4312H16.5947V47.8266H17.3329V42.4866H16.5947V41.8819H18.1202V45.9633L19.8483 44.4419H19.1884V43.8372H21.3934V44.4419H20.7923L19.5771 45.5099L20.9753 47.8266H21.462V48.4312H19.4987V47.8266H20.0606L18.9924 46.0323L18.1169 46.7882V47.8266H18.9467Z" fill="white"/>
<path d="M26.2607 47.0018C26.0582 48.0205 25.3297 48.5528 24.1243 48.5528C22.7262 48.5528 21.8899 47.6163 21.8899 46.1342C21.8899 44.6949 22.785 43.7156 24.1439 43.7156C25.5715 43.7156 26.3881 44.6522 26.3881 46.3347H22.7229C22.7523 47.3534 23.2946 47.9482 24.1505 47.9482C24.9083 47.9482 25.4049 47.5867 25.5192 47.0018H26.2607ZM25.5519 45.73C25.4343 44.8033 24.941 44.3203 24.1439 44.3203C23.3469 44.3203 22.8144 44.8329 22.7458 45.73H25.5519Z" fill="white"/>
<path d="M27.2505 46.8506H27.881C27.9986 47.5341 28.4527 47.8989 29.1354 47.8989C29.7953 47.8989 30.1938 47.5768 30.1938 47.1332C30.1938 46.752 29.9423 46.5778 29.3281 46.4891L28.5017 46.3675C27.7242 46.2459 27.3061 45.8122 27.3061 45.1582C27.3061 44.3236 27.9659 43.7189 28.9949 43.7189C29.596 43.7189 30.0337 43.9194 30.3245 44.3531V43.8372H30.8863V45.3587H30.3408C30.2918 44.7146 29.8051 44.3728 29.155 44.3728C28.4657 44.3728 28.0868 44.616 28.0868 45.0695C28.0868 45.3817 28.2795 45.5723 28.6879 45.6347L29.4653 45.7465C30.4943 45.8976 30.9713 46.292 30.9713 47.1168C30.9713 47.9515 30.3408 48.5561 29.2922 48.5561C28.6617 48.5561 28.1946 48.3228 27.8451 47.8496V48.4345H27.244V46.8506H27.2505Z" fill="white"/>
<path d="M34.0517 44.4418V43.8372H34.9272V42.8612L35.7145 42.549V43.8372H37.093V44.4418H35.7145V47.2844C35.7145 47.7379 35.7635 47.8989 36.1424 47.8989C36.5409 47.8989 36.7337 47.6557 36.7337 47.0839H37.3151V47.1759C37.3151 48.0632 36.8872 48.5561 36.1489 48.5561C35.2931 48.5561 34.9239 48.2143 34.9239 47.429V44.4484H34.0517V44.4418Z" fill="white"/>
<path d="M40.8007 43.7156C41.8787 43.7156 42.3556 44.248 42.3556 45.3685V47.8266H43.0939V48.4312H40.7517V47.8266H41.5683V45.3685C41.5683 44.6719 41.2482 44.3203 40.6079 44.3203C39.8403 44.3203 39.298 44.8658 39.298 45.7695V47.8233H40.1245V48.428H37.7725V47.8233H38.5107V42.4833H37.7725V41.8787H39.298V44.5569C39.7227 43.9785 40.1898 43.7156 40.8007 43.7156Z" fill="white"/>
<path d="M47.9122 47.0018C47.7097 48.0205 46.9812 48.5528 45.7758 48.5528C44.3777 48.5528 43.5414 47.6163 43.5414 46.1342C43.5414 44.6949 44.4365 43.7156 45.7954 43.7156C47.2229 43.7156 48.0396 44.6522 48.0396 46.3347H44.3777C44.4071 47.3534 44.9493 47.9482 45.8052 47.9482C46.5631 47.9482 47.0596 47.5867 47.1739 47.0018H47.9122ZM47.2033 45.73C47.0857 44.8033 46.5925 44.3203 45.7954 44.3203C44.9983 44.3203 44.4659 44.8329 44.3973 45.73H47.2033Z" fill="white"/>
<path d="M51.205 47.7543H52.0707V42.5556H51.205V41.8819H54.0013C56.1475 41.8819 57.3235 43.0518 57.3235 45.1549C57.3235 47.2614 56.1475 48.4279 54.0013 48.4279H51.205V47.7543ZM54.0013 47.7543C55.5366 47.7543 56.4284 46.7882 56.4284 45.1549C56.4284 43.4922 55.5333 42.5556 54.0013 42.5556H52.9233V47.7543H54.0013Z" fill="white"/>
<path d="M58.016 47.8266H58.7739V44.4419H58.016V43.8372H59.5611V47.8266H60.2994V48.4312H58.016V47.8266ZM58.7053 41.8819H59.5611V42.7889H58.7053V41.8819Z" fill="white"/>
<path d="M63.2002 47.8266V48.4312H60.7437V47.8266H61.4819V44.4419H60.6555V43.8372H61.4819V43.6762C61.4819 42.365 61.9197 41.7636 62.9977 41.7636C63.2002 41.7636 63.4746 41.7932 63.7947 41.8326V42.5162C63.4942 42.4669 63.2492 42.4143 63.1055 42.4143C62.5436 42.4143 62.2692 42.7758 62.2692 43.4724V43.8339H63.308V44.4386H62.2692V47.8233H63.2002V47.8266Z" fill="white"/>
<path d="M66.1141 47.8266V48.4312H63.6575V47.8266H64.3958V44.4419H63.5693V43.8372H64.3958V43.6762C64.3958 42.365 64.8335 41.7636 65.9115 41.7636C66.1141 41.7636 66.3885 41.7932 66.7086 41.8326V42.5162C66.4081 42.4669 66.1631 42.4143 66.0193 42.4143C65.4575 42.4143 65.1831 42.7758 65.1831 43.4724V43.8339H66.2219V44.4386H65.1831V47.8233H66.1141V47.8266Z" fill="white"/>
<path d="M70.9912 47.0018C70.7887 48.0205 70.0602 48.5528 68.8548 48.5528C67.4567 48.5528 66.6204 47.6163 66.6204 46.1342C66.6204 44.6949 67.5155 43.7156 68.8744 43.7156C70.3019 43.7156 71.1186 44.6522 71.1186 46.3347H67.4567C67.4861 47.3534 68.0283 47.9482 68.8842 47.9482C69.6421 47.9482 70.1386 47.5867 70.2529 47.0018H70.9912ZM70.2823 45.73C70.1647 44.8033 69.6715 44.3203 68.8744 44.3203C68.0773 44.3203 67.5449 44.8329 67.4763 45.73H70.2823Z" fill="white"/>
<path d="M74.1599 47.8266V48.4312H71.6935V47.8266H72.4318V44.4418H71.6935V43.8372H73.1897V44.6029C73.5392 43.9686 73.9867 43.7057 74.6858 43.7057C74.7642 43.7057 74.8426 43.7058 74.9177 43.7156V44.4616C74.8099 44.4517 74.7152 44.3597 74.6172 44.3597C73.6862 44.3597 73.2191 45.0136 73.2191 46.1736V47.8266H74.1599Z" fill="white"/>
<path d="M79.5401 47.0018C79.3375 48.0205 78.6091 48.5528 77.4037 48.5528C76.0055 48.5528 75.1693 47.6163 75.1693 46.1342C75.1693 44.6949 76.0643 43.7156 77.4233 43.7156C78.8508 43.7156 79.6675 44.6522 79.6675 46.3347H76.0055C76.0349 47.3534 76.5772 47.9482 77.4331 47.9482C78.1909 47.9482 78.6875 47.5867 78.8018 47.0018H79.5401ZM78.8312 45.73C78.7136 44.8033 78.2203 44.3203 77.4233 44.3203C76.6262 44.3203 76.0937 44.8329 76.0251 45.73H78.8312Z" fill="white"/>
<path d="M80.2391 47.8266H80.9774V44.4418H80.2391V43.8372H81.7353V44.6324C82.1436 44.0081 82.6205 43.7156 83.2706 43.7156C84.3486 43.7156 84.8255 44.248 84.8255 45.3685V47.8266H85.5736V48.4312H83.2216V47.8266H84.0383V45.3685C84.0383 44.6719 83.7181 44.3203 83.0779 44.3203C82.3102 44.3203 81.7679 44.8658 81.7679 45.7694V47.8233H82.5944V48.4279H80.2424V47.8266H80.2391Z" fill="white"/>
<path d="M90.1763 46.89C90.0293 48.0073 89.3695 48.5528 88.1935 48.5528C86.8737 48.5528 86.0081 47.6261 86.0081 46.1244C86.0081 44.6522 86.8639 43.7156 88.1837 43.7156C88.739 43.7156 89.1931 43.9358 89.5132 44.3695V43.8372H90.0947V45.569H89.5067C89.4773 44.8033 88.9905 44.3695 88.2327 44.3695C87.3866 44.3695 86.8443 45.0038 86.8443 46.1211C86.8443 47.2482 87.3899 47.8956 88.2131 47.8956C88.8827 47.8956 89.3401 47.5144 89.4381 46.8867H90.1763V46.89Z" fill="white"/>
<path d="M95.2462 47.0018C95.0437 48.0205 94.3152 48.5528 93.1098 48.5528C91.7117 48.5528 90.8754 47.6163 90.8754 46.1342C90.8754 44.6949 91.7705 43.7156 93.1294 43.7156C94.5569 43.7156 95.3736 44.6522 95.3736 46.3347H91.7117C91.7411 47.3534 92.2833 47.9482 93.1392 47.9482C93.8971 47.9482 94.3936 47.5867 94.5079 47.0018H95.2462ZM94.5373 45.73C94.4197 44.8033 93.9265 44.3203 93.1294 44.3203C92.3323 44.3203 91.7999 44.8329 91.7313 45.73H94.5373Z" fill="white"/>
<path d="M10.8715 21.6097C5.2038 21.6097 1.6954 21.452 1.6562 21.4487L1.68887 20.7586C1.73133 20.7619 6.1054 20.959 12.9785 20.9097C19.3223 20.867 29.155 20.6009 39.9644 19.5789C59.0352 17.778 84.8745 13.2333 99.6595 1.80737L100.078 2.35616C96.628 5.02451 92.4042 7.45955 87.5303 9.59554C83.1073 11.5344 78.0439 13.2727 72.4841 14.7614C63.1283 17.2654 52.2046 19.1188 40.0199 20.2689C29.1811 21.2909 19.3289 21.5571 12.9719 21.5998C12.2435 21.6064 11.5411 21.6097 10.8715 21.6097Z" fill="white"/>
<path d="M26.7513 22.2459C27.4759 21.517 27.4759 20.3352 26.7513 19.6062C26.0267 18.8773 24.8519 18.8773 24.1273 19.6062C23.4027 20.3352 23.4027 21.517 24.1273 22.2459C24.8519 22.9748 26.0267 22.9748 26.7513 22.2459Z" fill="white"/>
<path d="M50.839 19.1549C50.9721 18.1329 50.2564 17.1957 49.2403 17.0618C48.2243 16.9279 47.2927 17.6479 47.1596 18.67C47.0265 19.6921 47.7423 20.6292 48.7583 20.7632C49.7743 20.8971 50.7059 20.177 50.839 19.1549Z" fill="white"/>
<path d="M73.876 15.7266C74.6006 14.9976 74.6006 13.8158 73.876 13.0869C73.1514 12.358 71.9766 12.358 71.252 13.0869C70.5274 13.8158 70.5275 14.9976 71.252 15.7266C71.9766 16.4555 73.1514 16.4555 73.876 15.7266Z" fill="white"/>
</g>
</g>
<defs>
<clipPath id="clip0_208_232">
<rect width="98" height="52" fill="white"/>
</clipPath>
<clipPath id="clip1_208_232">
<rect width="98" height="52" fill="white"/>
</clipPath>
</defs>
</svg>
