<svg width="80" height="16" viewBox="0 0 80 16" fill="none" xmlns="http://www.w3.org/2000/svg">
<path fill-rule="evenodd" clip-rule="evenodd" d="M62.1813 12.1701H63.9412V0.424595H62.1813V12.1701ZM78.0419 4.65563L76.0234 9.74809H75.963L73.8681 4.65563H71.9713L75.1137 11.7729L73.3217 15.7322H75.1581L80 4.65563H78.0419ZM68.057 10.836C67.4813 10.836 66.6764 10.5485 66.6764 9.8382C66.6764 8.93246 67.6786 8.58388 68.5439 8.58388C69.3168 8.58388 69.682 8.75112 70.1519 8.97662C70.0151 10.0656 69.0742 10.836 68.057 10.836ZM68.2674 4.39803C66.9925 4.39803 65.6724 4.95801 65.126 6.19636L66.6887 6.84655C67.0227 6.19636 67.6446 5.98496 68.2976 5.98496C69.2083 5.98496 70.134 6.52897 70.1491 7.49579V7.61699C69.8301 7.43566 69.1469 7.16412 68.3127 7.16412C66.6273 7.16412 64.9127 8.08584 64.9127 9.80806C64.9127 11.38 66.2942 12.3928 67.8418 12.3928C69.0252 12.3928 69.6792 11.8638 70.0878 11.2437H70.1491V12.1504H71.8496V7.64706C71.8496 5.56216 70.285 4.39803 68.2674 4.39803ZM57.3869 6.08548H54.8824V2.05943H57.3869C58.7033 2.05943 59.4507 3.1437 59.4507 4.07199C59.4507 4.98243 58.7033 6.08548 57.3869 6.08548ZM57.3408 0.423677H53.1217V12.1702H54.8816V7.72036H57.3408C59.2923 7.72036 61.2108 6.31289 61.2108 4.07202C61.2108 1.83115 59.2923 0.423677 57.3408 0.423677ZM34.3329 10.8378C33.1165 10.8378 32.0983 9.82401 32.0983 8.43157C32.0983 7.02316 33.1165 5.99433 34.3329 5.99433C35.5332 5.99433 36.4759 7.02316 36.4759 8.43157C36.4759 9.82401 35.5332 10.8378 34.3329 10.8378ZM36.3561 5.31335H36.2957C35.9003 4.84451 35.1398 4.41982 34.1829 4.41982C32.1757 4.41982 30.3356 6.17588 30.3356 8.43178C30.3356 10.6717 32.1757 12.4127 34.1829 12.4127C35.1398 12.4127 35.9003 11.989 36.2957 11.5042H36.3561V12.0792C36.3561 13.6088 35.5351 14.4253 34.2131 14.4253C33.1335 14.4253 32.4645 13.6539 32.1908 13.0028L30.6555 13.6389C31.0962 14.6978 32.2663 16 34.2131 16C36.2806 16 38.0292 14.7889 38.0292 11.8368V4.66223H36.3561V5.31335ZM39.2457 12.1701H41.0085V0.424595H39.2457V12.1701ZM43.6073 8.29535C43.562 6.7507 44.8086 5.96428 45.705 5.96428C46.4052 5.96428 46.9979 6.31286 47.196 6.81177L43.6073 8.29535ZM49.0799 6.96323C48.7449 6.07064 47.7267 4.41982 45.644 4.41982C43.5764 4.41982 41.858 6.03964 41.858 8.41675C41.858 10.6567 43.5613 12.4127 45.8412 12.4127C47.6804 12.4127 48.7449 11.2928 49.1865 10.6416L47.8182 9.73308C47.3615 10.3992 46.7386 10.838 45.8412 10.838C44.9447 10.838 44.3059 10.4293 43.8963 9.62691L49.262 7.41705L49.0799 6.96323ZM6.325 5.6468V7.34178H10.3988C10.278 8.29545 9.95809 8.99167 9.47211 9.47554C8.87854 10.0665 7.95092 10.7177 6.325 10.7177C3.8158 10.7177 1.85487 8.70416 1.85487 6.20679C1.85487 3.70941 3.8158 1.69498 6.325 1.69498C7.67821 1.69498 8.66622 2.2249 9.39567 2.90702L10.5969 1.71095C9.5778 0.742259 8.22553 0 6.325 0C2.88818 0 -0.000366211 2.78582 -0.000366211 6.20679C-0.000366211 9.62681 2.88818 12.4126 6.325 12.4126C8.17929 12.4126 9.5778 11.8066 10.6724 10.6716C11.7973 9.55165 12.1474 7.97693 12.1474 6.7057C12.1474 6.31296 12.1172 5.94935 12.0559 5.6468H6.325ZM16.7781 10.8378C15.5627 10.8378 14.5133 9.83905 14.5133 8.41654C14.5133 6.97806 15.5627 5.99433 16.7781 5.99433C17.9945 5.99433 19.0438 6.97806 19.0438 8.41654C19.0438 9.83905 17.9945 10.8378 16.7781 10.8378ZM16.7791 4.41982C14.5596 4.41982 12.7506 6.10071 12.7506 8.41675C12.7506 10.7177 14.5596 12.4127 16.7791 12.4127C18.9995 12.4127 20.8085 10.7177 20.8085 8.41675C20.8085 6.10071 18.9995 4.41982 16.7791 4.41982ZM25.5691 10.8378C24.3527 10.8378 23.3033 9.83905 23.3033 8.41654C23.3033 6.97806 24.3527 5.99433 25.5691 5.99433C26.7855 5.99433 27.8339 6.97806 27.8339 8.41654C27.8339 9.83905 26.7855 10.8378 25.5691 10.8378ZM25.5672 4.41982C23.3477 4.41982 21.5387 6.10071 21.5387 8.41675C21.5387 10.7177 23.3477 12.4127 25.5672 12.4127C27.7867 12.4127 29.5957 10.7177 29.5957 8.41675C29.5957 6.10071 27.7867 4.41982 25.5672 4.41982Z" fill="white"/>
</svg>
