<svg width="175" height="161" viewBox="0 0 175 161" fill="none" xmlns="http://www.w3.org/2000/svg">
<path fill-rule="evenodd" clip-rule="evenodd" d="M20.6851 101.97C22.0244 102.207 23.2966 101.329 23.56 100.005C26.9294 84.444 33.8535 73.0047 44.0518 65.9376C53.9831 59.0575 67.0182 56.5033 82.7329 58.2824C86.2027 58.6438 92.2447 60.1962 98.3524 62.723C98.2747 67.9949 99.4854 73.357 101.439 77.9904C104.326 84.8326 108.992 89.7633 112.875 91.1423C115.026 91.9053 117.098 91.8627 119.043 91.1134C121.532 90.1512 124.155 87.734 125.592 82.6563C127.564 75.6323 124.894 69.3128 119.334 64.1308C116.408 61.4089 112.629 59.0316 108.578 57.0309C109.56 53.9191 111.543 51.1619 115 49.3339C122.285 45.4189 131.161 47.4839 139.229 51.521C146.215 55.0082 155.678 60.7407 159.178 68.0144C160.368 70.4854 160.69 73.0836 163.815 73.6475C168.62 74.5404 169.248 69.8274 167.617 66.4306C164.11 59.1359 156.282 52.7858 149.76 48.28C137.769 39.9803 122.756 35.3749 110.843 41.3977C105.274 44.2446 101.834 48.5427 100.012 53.4376C93.5245 51.1138 87.3147 49.7609 83.6402 49.4591C65.5884 48.1553 50.8378 51.8478 39.8525 60.2339C28.8742 68.6058 21.5759 81.6306 18.7271 99.1336C18.4779 100.464 19.3458 101.734 20.6851 101.97ZM109.124 68.4681C111.111 69.8516 112.844 71.3587 114.175 73.0061C115.865 75.1036 116.835 77.452 116.082 80.0968C115.951 80.5412 115.822 81.1259 115.692 81.5702C114.944 80.9515 113.524 79.6986 112.663 78.4501C110.755 75.6546 109.128 71.8928 108.305 67.9207C108.604 68.098 108.868 68.276 109.124 68.4681Z" fill="#1E71B3"/>
<path fill-rule="evenodd" clip-rule="evenodd" d="M115.509 81.9197C115.232 81.9455 114.991 82.006 115.113 82.152C115.272 82.3326 115.384 82.2109 115.509 81.9197Z" fill="#1E71B3"/>
<path fill-rule="evenodd" clip-rule="evenodd" d="M23.4176 93.9897C22.9463 91.3012 22.3537 88.5024 21.5725 85.9808C20.3393 82.0554 18.73 78.7896 16.4355 77.1718C15.443 76.2619 13.8793 76.338 12.9685 77.3368C12.0434 78.3288 12.1076 79.8796 13.107 80.7753C13.5294 81.2737 13.7199 81.9586 13.9676 82.7057C14.5645 84.4581 14.6981 86.6187 14.8333 88.9548C15.003 91.9364 14.9123 95.091 14.9391 97.9346C14.9563 100.512 15.0843 102.827 15.3413 104.557C15.7421 107.282 16.8629 109.039 17.777 109.894C18.0198 110.115 22.9055 112.531 25.6274 108.411C26.5974 106.933 28.8616 103.067 28.973 102.876C30.2453 100.424 32.6451 95.9236 35.5079 92.4826C36.4108 91.3926 37.3001 90.3661 38.2632 89.6543C38.3769 89.7086 38.4907 89.7628 38.6114 89.8028C40.4228 90.4739 42.4316 89.5616 43.1367 87.7658C43.5739 86.8383 43.698 84.9752 43.4559 84.0735C42.9793 82.3261 41.6554 81.5554 39.6731 81.5192C36.9757 81.4743 34.0868 82.8934 31.2836 85.1396C28.3471 87.5145 25.5554 90.9895 23.4176 93.9897ZM24.6118 102.789C24.6809 103.364 24.8188 103.727 25.1644 103.594C25.5523 103.447 24.9468 103.036 24.6118 102.789Z" fill="#1E71B3"/>
</svg>
