<svg width="2654" height="1879" viewBox="0 0 2654 1879" fill="none" xmlns="http://www.w3.org/2000/svg">
<g opacity="0.15">
<path d="M11.689 825.895C11.689 825.895 -76.7031 400.268 251.392 481.018C579.487 561.768 228.721 322.758 520.644 345.174C812.567 367.589 927.706 143.703 942.735 27.5737" stroke="#FF61D6" stroke-width="0.1719" stroke-miterlimit="10"/>
<path d="M12.4499 827.517C12.4499 827.517 -7.67392 730.292 8.37421 640.09C25.4413 543.675 80.7181 451.582 239.926 483.18C245.02 484.26 250.37 485.341 255.719 486.691C582.286 564.201 232.793 324.38 523.697 347.066C531.849 347.606 539.745 348.146 547.642 348.416C821.989 357.869 932.033 143.975 943.241 27.3052" stroke="#FF61D6" stroke-width="0.1719" stroke-miterlimit="10"/>
<path d="M13.2226 829.137C13.2226 829.137 -6.90128 730.832 10.93 642.79C29.7801 548.536 85.5665 458.603 244.519 488.581C249.614 489.661 254.963 490.471 260.313 491.822C585.096 565.82 236.877 325.46 527.017 348.146C535.169 348.686 543.32 349.226 551.217 349.496C825.309 360.029 936.117 147.215 943.759 26.7646" stroke="#FF61D6" stroke-width="0.1719" stroke-miterlimit="10"/>
<path d="M13.7259 830.487C13.7259 830.487 -6.14323 731.102 13.2164 645.22C34.1044 553.127 90.4002 465.355 248.589 493.982C253.684 494.792 259.033 495.873 264.382 496.953C587.637 567.711 240.692 326.81 529.813 349.766C537.965 350.306 546.116 351.116 554.013 351.386C828.359 363.539 939.677 150.996 944.008 26.7645" stroke="#FF61D6" stroke-width="0.1719" stroke-miterlimit="10"/>
<path d="M14.4926 832.105C14.4926 832.105 -5.37655 731.64 15.7662 647.919C38.4374 557.986 95.4974 472.375 253.177 499.382C258.271 500.192 263.621 501.002 269.225 502.082C590.697 569.599 245.025 327.888 533.382 351.114C541.533 351.924 549.685 352.465 557.581 352.735C831.418 366.238 943.501 154.505 944.265 26.4924" stroke="#FF61D6" stroke-width="0.1719" stroke-miterlimit="10"/>
<path d="M15.2597 833.728C15.2597 833.728 -4.60938 732.182 18.3165 650.351C42.7708 562.579 100.595 479.128 257.765 504.785C263.114 505.595 268.463 506.405 273.813 507.485C593.502 571.492 249.359 329.24 536.696 352.736C544.848 353.547 552.999 354.087 561.151 354.627C834.478 369.211 947.325 158.017 944.777 26.2241" stroke="#FF61D6" stroke-width="0.1719" stroke-miterlimit="10"/>
<path d="M15.769 835.079C15.769 835.079 -4.1001 732.453 20.6089 652.783C46.8463 567.441 105.435 485.881 261.84 510.187C267.19 510.997 272.539 511.537 277.888 512.618C595.794 573.383 252.925 329.512 539.498 354.088C547.65 354.898 555.801 355.438 563.953 355.978C837.535 371.912 951.145 161.799 945.032 25.9551" stroke="#FF61D6" stroke-width="0.1719" stroke-miterlimit="10"/>
<path d="M16.5312 836.698C16.5312 836.698 -3.08316 733.262 23.1542 655.482C51.1748 572.301 110.782 492.901 266.423 515.587C271.773 516.397 277.122 516.937 282.472 517.747C598.594 575.002 257.253 330.59 542.808 355.436C550.959 356.247 559.365 356.787 567.517 357.327C840.844 374.611 954.964 165.038 945.539 25.6832" stroke="#FF61D6" stroke-width="0.1719" stroke-miterlimit="10"/>
<path d="M17.2877 838.32C17.2877 838.32 -2.32668 733.803 25.4391 658.184C55.4975 577.164 115.614 499.924 270.746 521.26C276.096 522.07 281.445 522.34 286.794 523.42C601.134 577.434 261.066 331.942 545.857 357.329C554.008 358.139 562.415 358.949 570.566 359.489C844.148 377.854 959.032 169.091 945.786 25.9551" stroke="#FF61D6" stroke-width="0.1719" stroke-miterlimit="10"/>
<path d="M17.799 839.668C17.799 839.668 -1.81542 734.071 27.7335 660.613C59.575 581.753 120.456 506.674 274.824 526.389C280.173 527.199 285.522 527.469 290.872 528.279C603.428 579.052 264.889 332.75 548.661 358.407C557.067 359.217 565.218 360.027 573.37 360.567C846.697 380.282 962.346 172.33 945.788 25.1426" stroke="#FF61D6" stroke-width="0.1719" stroke-miterlimit="10"/>
<path d="M18.5643 841.288C18.5643 841.288 -1.05004 734.611 30.282 663.314C63.9067 586.884 125.552 513.426 279.41 532.06C284.759 532.601 290.109 532.871 295.458 533.681C606.231 581.213 268.966 334.101 551.973 360.027C560.38 360.837 568.531 361.647 576.937 362.188C850.265 382.983 966.423 175.841 946.553 25.1427" stroke="#FF61D6" stroke-width="0.1719" stroke-miterlimit="10"/>
<path d="M19.3338 842.909C19.3338 842.909 -0.280584 735.152 32.8346 665.745C68.2424 591.476 130.652 520.178 284 537.462C289.35 538.002 294.699 538.272 300.049 538.813C608.784 583.104 273.302 334.911 555.29 361.378C563.696 362.188 571.848 362.998 580.254 363.808C853.582 385.684 970.504 179.352 947.068 24.873" stroke="#FF61D6" stroke-width="0.1719" stroke-miterlimit="10"/>
<path d="M20.0948 844.261C20.0948 844.261 0.480446 735.694 35.3787 668.177C72.5696 596.339 135.743 526.931 288.328 542.865C293.677 543.405 299.027 543.405 304.376 544.215C611.328 585.266 277.12 336.263 558.344 363C566.75 363.81 575.156 364.62 583.308 365.43C856.38 388.656 974.067 182.864 947.32 24.6045" stroke="#FF61D6" stroke-width="0.1719" stroke-miterlimit="10"/>
<path d="M20.6093 845.88C20.6093 845.88 0.994933 736.232 37.6764 670.875C76.9051 600.928 140.843 533.681 292.663 548.265C298.013 548.805 303.362 548.535 308.711 549.345C613.88 587.154 281.2 337.341 561.406 364.348C569.812 365.158 578.218 366.239 586.624 366.779C859.697 391.085 977.893 186.373 947.58 24.3325" stroke="#FF61D6" stroke-width="0.1719" stroke-miterlimit="10"/>
<path d="M21.3658 847.229C21.3658 847.229 1.75139 736.501 40.2159 673.305C81.2278 605.788 145.93 540.432 297.241 553.395C302.59 553.935 307.939 553.665 313.544 554.205C616.675 589.044 285.523 337.881 564.964 365.158C573.37 365.968 581.776 367.048 590.183 367.858C862.746 393.515 981.706 189.613 948.081 23.7915" stroke="#FF61D6" stroke-width="0.1719" stroke-miterlimit="10"/>
<path d="M22.1283 848.851C22.1283 848.851 2.5139 737.313 42.7616 676.007C85.5566 610.651 151.023 547.185 301.569 559.068C306.919 559.608 312.268 559.068 317.872 559.878C619.22 591.476 289.597 339.503 568.019 367.05C576.425 367.86 584.832 368.94 593.493 369.75C866.056 396.217 985.525 193.126 948.589 23.5229" stroke="#FF61D6" stroke-width="0.1719" stroke-miterlimit="10"/>
<path d="M22.6469 850.473C22.6469 850.473 3.03255 737.854 44.8086 678.71C89.3867 615.514 155.617 554.208 305.654 564.741C311.004 565.011 316.608 564.741 321.957 565.281C621.267 593.638 293.427 340.854 570.83 368.671C579.237 369.482 587.643 370.562 596.304 371.372C869.122 398.919 989.61 196.638 948.853 23.2544" stroke="#FF61D6" stroke-width="0.1719" stroke-miterlimit="10"/>
<path d="M23.406 851.821C23.406 851.821 3.7916 738.123 47.3508 681.138C93.712 620.373 160.961 560.688 310.234 569.87C315.584 570.14 321.188 569.6 326.537 570.14C623.81 595.527 297.498 341.663 574.137 370.02C582.543 370.83 591.204 371.91 599.61 372.991C872.173 401.618 993.426 200.147 949.357 22.9824" stroke="#FF61D6" stroke-width="0.1719" stroke-miterlimit="10"/>
<path d="M24.1657 853.441C24.1657 853.441 4.55133 738.932 49.8936 683.568C98.038 625.234 166.051 567.439 314.56 575.271C319.91 575.541 325.514 575.001 330.863 575.271C626.098 597.687 301.569 342.473 577.189 371.1C585.595 371.91 594.256 373.26 602.917 374.07C875.48 404.048 997.242 203.387 949.608 22.4419" stroke="#FF61D6" stroke-width="0.1719" stroke-miterlimit="10"/>
<path d="M24.6806 855.062C24.6806 855.062 5.06622 739.473 52.1917 686.269C102.119 629.825 171.152 574.191 318.896 580.673C324.246 580.943 329.85 580.132 335.199 580.673C628.65 600.117 305.395 343.823 580.251 372.72C588.658 373.53 597.318 374.881 605.979 375.691C878.288 406.749 1000.81 207.168 949.868 22.4419" stroke="#FF61D6" stroke-width="0.1719" stroke-miterlimit="10"/>
<path d="M25.4462 856.414C25.4462 856.414 5.83182 739.744 54.7404 688.701C106.451 634.688 176.248 580.674 323.483 586.075C329.087 586.345 334.436 585.535 339.786 585.805C631.199 602.009 309.727 344.905 583.564 374.072C591.97 374.882 600.631 376.233 609.292 377.313C881.601 409.451 1004.89 210.681 950.379 22.1733" stroke="#FF61D6" stroke-width="0.1719" stroke-miterlimit="10"/>
<path d="M26.2057 858.035C26.2057 858.035 6.59136 740.555 57.2831 691.402C110.777 639.549 181.338 587.426 327.809 591.747C333.413 592.017 338.762 590.937 344.111 591.207C633.487 604.441 313.544 346.256 586.616 375.693C595.277 376.503 603.683 377.853 612.599 378.934C884.908 412.152 1008.71 214.192 950.883 21.9038" stroke="#FF61D6" stroke-width="0.1719" stroke-miterlimit="10"/>
<path d="M26.7202 859.653C26.7202 859.653 7.10578 741.093 59.5806 694.101C114.857 644.678 186.437 594.176 332.144 597.146C337.748 597.146 343.097 596.336 348.447 596.606C635.785 607.139 317.624 347.604 589.678 377.311C598.339 378.121 607 379.472 615.661 380.552C887.97 414.85 1012.53 217.701 951.143 21.6313" stroke="#FF61D6" stroke-width="0.1719" stroke-miterlimit="10"/>
<path d="M27.4804 861.003C27.4804 861.003 7.86603 741.363 61.8692 696.531C118.929 649.269 191.273 600.927 336.47 602.548C342.075 602.548 347.424 601.467 353.028 601.738C638.328 609.299 321.696 348.414 592.986 378.661C601.647 379.742 610.307 381.092 619.223 382.172C891.277 417.551 1016.61 221.482 951.903 21.6313" stroke="#FF61D6" stroke-width="0.1719" stroke-miterlimit="10"/>
<path d="M28.2425 862.623C28.2425 862.623 8.37336 741.902 64.4144 698.962C123.003 653.86 196.366 607.408 340.799 607.679C346.403 607.679 351.752 606.598 357.356 606.598C640.618 611.189 325.77 349.223 596.04 379.741C604.701 380.821 613.362 382.172 622.278 383.252C894.077 419.981 1020.17 224.992 951.901 21.0908" stroke="#FF61D6" stroke-width="0.1719" stroke-miterlimit="10"/>
<path d="M28.7554 864.245C28.7554 864.245 8.88632 742.714 66.7105 701.664C127.082 658.993 201.464 614.162 345.133 613.352C350.737 613.352 356.086 612.001 361.69 612.001C642.66 613.892 329.594 350.575 599.101 381.363C607.762 382.444 616.423 383.794 625.338 385.144C897.392 422.684 1023.99 228.505 952.414 20.8224" stroke="#FF61D6" stroke-width="0.1719" stroke-miterlimit="10"/>
<path d="M29.5228 865.597C29.5228 865.597 9.6537 742.986 69.261 704.096C131.416 663.586 206.562 620.645 349.721 618.754C355.325 618.754 360.675 617.404 366.279 617.404C645.21 616.324 333.928 351.927 602.415 382.985C611.076 384.065 619.737 385.416 628.908 386.766C900.452 425.116 1027.82 232.017 952.672 20.5537" stroke="#FF61D6" stroke-width="0.1719" stroke-miterlimit="10"/>
<path d="M30.2903 867.215C30.2903 867.215 10.4212 743.524 71.8117 706.795C135.749 668.445 211.914 627.395 354.055 624.154C359.659 624.154 365.008 622.534 370.612 622.534C647.506 618.753 337.752 353.006 605.476 384.334C614.136 385.414 623.052 386.764 631.968 388.114C903.512 427.814 1031.64 235.526 953.185 20.2817" stroke="#FF61D6" stroke-width="0.1719" stroke-miterlimit="10"/>
<path d="M30.7903 868.837C30.7903 868.837 10.6665 744.336 74.0948 709.497C139.816 673.308 216.745 634.148 358.376 629.827C363.98 629.557 369.584 628.206 374.933 627.936C649.789 621.455 341.818 354.357 608.523 385.955C617.184 387.036 626.099 388.656 635.015 390.006C906.559 430.517 1035.45 239.038 953.43 20.0132" stroke="#FF61D6" stroke-width="0.1719" stroke-miterlimit="10"/>
<path d="M31.5521 870.187C31.5521 870.187 11.4283 744.606 76.6397 711.928C143.889 678.169 222.092 640.359 362.959 635.228C368.563 634.958 374.167 633.338 379.516 633.338C652.08 624.155 345.892 355.438 611.832 387.576C620.493 388.656 629.408 390.276 638.579 391.627C909.869 432.947 1039.27 242.549 953.937 20.0132" stroke="#FF61D6" stroke-width="0.1719" stroke-miterlimit="10"/>
<path d="M32.3245 871.806C32.3245 871.806 12.2006 745.144 78.9405 714.356C147.973 682.758 226.94 646.839 367.043 640.358C372.647 640.088 378.251 638.467 383.6 638.197C654.126 626.314 349.721 356.246 614.642 388.654C623.303 389.734 632.219 391.355 641.389 392.705C912.933 435.646 1043.1 246.058 954.2 19.7412" stroke="#FF61D6" stroke-width="0.1719" stroke-miterlimit="10"/>
<path d="M32.8293 873.428C32.8293 873.428 12.4507 745.685 81.2284 717.058C152.044 687.621 232.03 653.592 371.368 646.03C376.972 645.76 382.577 643.87 387.926 643.6C656.159 629.016 353.537 357.598 617.694 390.276C626.355 391.356 635.271 392.977 644.696 394.597C915.986 438.078 1046.92 249.57 954.705 19.4725" stroke="#FF61D6" stroke-width="0.1719" stroke-miterlimit="10"/>
<path d="M33.595 874.778C33.595 874.778 13.2164 745.956 83.7772 719.489C156.121 692.212 237.126 660.074 375.955 651.162C381.559 650.892 387.163 649.002 392.513 648.461C658.708 631.177 357.869 358.408 621.007 391.357C629.668 392.437 638.839 394.057 648.009 395.678C919.299 440.779 1050.74 253.082 954.961 19.2029" stroke="#FF61D6" stroke-width="0.1719" stroke-miterlimit="10"/>
<path d="M34.3651 876.398C34.3651 876.398 13.9865 746.495 86.3304 722.189C160.457 697.073 242.481 666.555 380.291 656.833C386.15 656.293 391.5 654.402 397.104 654.132C661.006 634.417 361.951 360.028 624.325 393.246C633.24 394.327 642.156 396.217 651.326 397.568C922.361 443.479 1054.57 256.592 955.476 18.9321" stroke="#FF61D6" stroke-width="0.1719" stroke-miterlimit="10"/>
<path d="M34.8733 878.019C34.8733 878.019 14.2399 747.036 88.6217 724.89C164.532 701.934 247.32 673.307 384.62 662.504C390.479 661.964 395.829 660.074 401.433 659.534C663.297 637.118 366.025 361.378 627.38 394.867C636.296 395.947 645.211 397.838 654.637 399.458C925.417 445.91 1058.39 260.103 955.73 18.6621" stroke="#FF61D6" stroke-width="0.1719" stroke-miterlimit="10"/>
<path d="M35.63 879.369C35.63 879.369 14.9967 747.305 91.1616 727.32C168.855 706.795 252.662 679.788 389.198 667.635C395.057 667.095 400.406 664.935 406.011 664.394C665.583 639.548 370.093 362.188 630.684 395.947C639.6 397.027 648.516 398.918 657.941 400.538C928.721 448.34 1062.2 263.613 956.232 18.3916" stroke="#FF61D6" stroke-width="0.1719" stroke-miterlimit="10"/>
<path d="M36.3981 880.991C36.3981 880.991 15.7648 748.117 93.7128 729.752C172.935 711.388 257.76 686.001 393.533 673.038C399.391 672.498 404.741 670.337 410.345 669.797C667.624 642.52 373.918 363.27 633.745 397.299C642.661 398.379 651.576 400.269 661.001 401.89C931.782 450.772 1066.03 266.856 956.491 17.853" stroke="#FF61D6" stroke-width="0.1719" stroke-miterlimit="10"/>
<path d="M36.9043 882.611C36.9043 882.611 16.271 748.657 95.7474 732.453C176.752 716.249 262.597 692.753 397.605 678.439C403.464 677.899 408.813 675.469 414.417 674.928C669.659 645.221 377.736 364.62 636.544 398.919C645.459 399.999 654.63 401.89 664.055 403.78C934.835 453.473 1069.84 270.637 956.997 17.853" stroke="#FF61D6" stroke-width="0.1719" stroke-miterlimit="10"/>
<path d="M37.6697 883.959C37.6697 883.959 16.7816 748.925 98.2959 734.882C181.084 720.838 267.948 698.963 402.191 683.839C408.05 683.299 413.4 680.868 419.004 680.058C672.207 647.92 382.068 365.699 639.856 400.267C648.772 401.348 657.942 403.238 667.368 405.129C937.893 455.901 1073.67 274.146 957.253 17.5811" stroke="#FF61D6" stroke-width="0.1719" stroke-miterlimit="10"/>
<path d="M38.4358 885.581C38.4358 885.581 17.5478 749.467 100.845 737.584C185.416 725.701 273.044 705.716 406.524 689.512C412.383 688.702 417.732 686.271 423.336 685.461C674.247 650.892 385.89 367.051 642.915 401.619C651.831 402.7 661.001 404.86 670.681 406.481C941.207 458.604 1077.49 277.658 957.764 17.3125" stroke="#FF61D6" stroke-width="0.1719" stroke-miterlimit="10"/>
<path d="M38.9489 886.93C38.9489 886.93 18.0609 749.735 103.141 740.013C189.241 730.29 278.142 711.926 410.858 694.641C416.717 693.831 422.066 691.4 427.67 690.59C676.543 653.861 390.225 368.129 646.23 403.238C655.146 404.588 664.316 406.479 673.996 408.369C944.267 461.032 1081.31 281.167 958.022 17.0405" stroke="#FF61D6" stroke-width="0.1719" stroke-miterlimit="10"/>
<path d="M39.7088 888.552C39.7088 888.552 18.566 750.277 105.684 742.715C193.567 735.153 283.233 718.409 415.439 700.314C421.298 699.504 426.647 696.803 432.251 695.993C678.832 656.833 394.041 369.481 649.283 404.59C658.198 405.94 667.369 407.831 677.049 409.721C947.319 463.465 1085.13 284.679 958.528 16.772" stroke="#FF61D6" stroke-width="0.1719" stroke-miterlimit="10"/>
<path d="M40.474 890.172C40.474 890.172 19.3312 750.817 108.233 745.146C197.898 739.744 288.583 724.891 419.77 705.446C425.629 704.635 430.978 701.935 436.582 700.854C680.871 659.534 398.118 370.291 652.595 405.94C661.511 407.29 670.936 409.181 680.616 411.071C950.632 466.165 1088.95 288.19 958.783 16.502" stroke="#FF61D6" stroke-width="0.1719" stroke-miterlimit="10"/>
<path d="M40.9801 891.522C40.9801 891.522 19.8373 750.816 110.522 747.575C201.971 744.335 293.42 731.101 424.097 710.846C429.956 710.036 435.56 707.065 441.164 706.255C683.16 662.504 402.19 371.641 655.649 407.29C664.564 408.64 673.989 410.531 683.669 412.691C953.685 468.595 1092.77 291.701 959.289 16.2312" stroke="#FF61D6" stroke-width="0.1719" stroke-miterlimit="10"/>
<path d="M41.7514 893.143C41.7514 893.143 20.3539 751.357 112.822 750.277C205.799 749.196 298.521 737.583 428.435 716.518C434.294 715.438 439.898 712.737 445.502 711.657C685.46 665.745 406.273 372.992 658.713 408.911C667.628 410.261 677.053 412.421 686.733 414.312C956.749 471.026 1096.6 295.212 959.551 15.9615" stroke="#FF61D6" stroke-width="0.1719" stroke-miterlimit="10"/>
<path d="M42.5123 894.762C42.5123 894.762 21.1148 751.896 115.366 752.976C210.126 754.056 303.613 744.064 432.762 721.918C438.621 720.838 444.225 717.867 449.829 716.787C687.494 668.715 410.345 374.071 662.021 410.26C670.936 411.61 680.362 413.771 690.296 415.931C960.058 473.456 1100.41 298.722 960.058 15.6904" stroke="#FF61D6" stroke-width="0.1719" stroke-miterlimit="10"/>
<path d="M43.0254 896.113C43.0254 896.113 21.6279 752.167 117.662 755.407C214.205 758.648 308.711 750.276 437.096 727.32C443.21 726.24 448.559 723.269 454.163 721.919C689.79 671.956 414.17 375.152 665.081 411.881C674.252 413.231 683.422 415.392 693.357 417.552C963.118 476.157 1104.24 302.233 960.316 15.4209" stroke="#FF61D6" stroke-width="0.1719" stroke-miterlimit="10"/>
<path d="M43.7906 897.735C43.7906 897.735 22.3931 752.708 120.21 758.11C218.537 763.511 314.061 757.029 441.682 732.723C447.796 731.643 453.145 728.402 458.749 727.322C691.829 674.929 418.247 376.233 668.139 413.233C677.309 414.583 686.734 416.744 696.669 418.904C966.176 478.589 1108.06 305.746 960.826 15.1523" stroke="#FF61D6" stroke-width="0.1719" stroke-miterlimit="10"/>
<path d="M44.546 899.353C44.546 899.353 23.1484 753.246 122.749 760.538C222.858 767.83 319.147 763.239 446.004 738.123C452.117 737.042 457.467 733.802 463.071 732.451C694.113 678.168 422.314 377.582 671.187 414.581C680.357 415.931 689.782 418.092 699.717 420.523C969.478 481.018 1111.87 309.255 961.072 14.8804" stroke="#FF61D6" stroke-width="0.1719" stroke-miterlimit="10"/>
<path d="M45.3156 900.703C45.3156 900.703 23.6633 753.516 125.301 762.969C226.94 772.421 324.502 769.45 450.594 743.524C456.708 742.173 462.057 738.932 467.661 737.582C696.411 681.138 426.395 378.662 674.504 415.931C683.674 417.281 693.099 419.442 703.034 421.873C972.541 483.448 1115.7 312.495 961.587 14.3398" stroke="#FF61D6" stroke-width="0.1719" stroke-miterlimit="10"/>
<path d="M45.8236 902.324C45.8236 902.324 24.1713 754.056 127.593 765.669C231.014 777.282 329.34 775.932 454.923 748.925C461.037 747.575 466.386 744.334 471.99 742.983C698.702 684.379 430.469 380.012 677.559 417.551C686.73 418.902 696.155 421.332 706.344 423.493C975.851 485.879 1119.77 316.276 961.84 14.3398" stroke="#FF61D6" stroke-width="0.1719" stroke-miterlimit="10"/>
<path d="M46.5896 903.945C46.5896 903.945 24.9373 754.598 129.887 768.371C235.091 782.145 334.437 782.415 459.001 754.598C465.114 753.247 470.464 750.007 476.068 748.386C700.742 687.621 434.292 381.094 680.618 418.903C689.788 420.254 699.213 422.684 709.403 425.115C978.654 488.311 1123.34 319.788 962.097 14.0713" stroke="#FF61D6" stroke-width="0.1719" stroke-miterlimit="10"/>
<path d="M47.3524 905.296C47.3524 905.296 25.7002 754.868 132.433 770.802C239.42 786.736 339.53 788.627 463.585 759.999C469.698 758.649 475.048 755.138 480.907 753.518C703.288 691.132 438.621 382.444 684.183 420.524C693.353 421.874 703.033 424.305 712.967 426.735C982.219 491.012 1127.42 323.299 962.86 13.8014" stroke="#FF61D6" stroke-width="0.1719" stroke-miterlimit="10"/>
<path d="M47.8629 906.915C47.8629 906.915 25.956 755.407 134.727 773.502C243.497 791.596 344.626 794.837 467.916 765.4C474.03 764.049 479.379 760.539 485.238 758.648C705.327 694.372 442.443 383.524 687.241 421.873C696.411 423.224 706.091 425.654 716.28 428.085C985.532 493.171 1131.49 326.539 963.37 13.5303" stroke="#FF61D6" stroke-width="0.1719" stroke-miterlimit="10"/>
<path d="M48.6281 908.536C48.6281 908.536 26.7211 755.678 137.275 775.933C247.829 796.188 349.721 801.049 472.248 770.802C478.361 769.181 483.711 765.67 489.569 764.05C707.365 697.613 446.52 384.874 690.044 423.224C699.214 424.574 708.894 427.005 719.083 429.706C988.335 495.872 1135.06 330.321 963.371 13.2607" stroke="#FF61D6" stroke-width="0.1719" stroke-miterlimit="10"/>
<path d="M49.3927 909.886C49.3927 909.886 27.4857 755.947 139.823 778.363C252.159 800.778 355.071 807.26 476.833 775.932C482.947 774.312 488.296 770.801 494.155 768.91C709.658 701.123 450.596 385.954 693.356 424.844C702.526 426.194 712.206 428.895 722.65 431.325C991.392 498.302 1138.88 333.831 963.881 12.9897" stroke="#FF61D6" stroke-width="0.1719" stroke-miterlimit="10"/>
<path d="M49.9008 911.508C49.9008 911.508 27.9939 756.489 142.114 781.065C255.979 805.642 359.91 813.744 481.162 781.605C487.276 779.985 492.625 776.204 498.484 774.314C712.204 704.366 454.67 387.036 696.666 426.196C705.836 427.816 715.516 430.247 725.96 432.678C994.957 500.465 1142.96 337.073 964.389 12.4517" stroke="#FF61D6" stroke-width="0.1719" stroke-miterlimit="10"/>
<path d="M50.6622 913.127C50.6622 913.127 28.7553 757.027 144.658 783.764C260.307 810.501 365.256 820.223 485.49 787.275C491.604 785.654 496.953 781.873 502.812 779.983C714.239 708.145 458.488 388.654 699.72 428.084C708.89 429.705 718.825 432.135 729.014 434.836C997.756 503.703 1146.52 341.392 964.641 12.9897" stroke="#FF61D6" stroke-width="0.1719" stroke-miterlimit="10"/>
<path d="M51.426 914.477C51.426 914.477 29.5191 757.297 146.951 786.195C264.382 815.092 370.096 826.165 489.82 792.406C496.188 790.516 501.283 786.735 507.142 784.844C716.532 711.116 462.564 389.465 702.776 429.165C712.201 430.785 721.881 433.216 732.325 435.916C1001.07 505.594 1150.34 344.363 964.895 12.1797" stroke="#FF61D6" stroke-width="0.1719" stroke-miterlimit="10"/>
<path d="M51.9377 916.099C51.9377 916.099 30.0308 757.839 149.245 788.897C268.46 819.955 375.193 832.648 494.153 798.079C500.521 796.189 505.87 792.408 511.475 790.247C718.826 714.628 466.642 390.817 705.835 430.517C715.26 432.137 724.94 434.568 735.384 437.268C1004.13 508.026 1154.16 347.876 965.407 11.9111" stroke="#FF61D6" stroke-width="0.1719" stroke-miterlimit="10"/>
<path d="M52.6975 917.717C52.6975 917.717 30.5358 758.377 151.788 791.325C272.786 824.273 380.283 838.857 498.479 803.208C504.847 801.318 510.196 797.267 515.8 795.106C720.86 717.867 470.458 391.895 708.887 431.865C718.313 433.485 727.992 435.916 738.436 438.886C1007.18 510.454 1157.73 351.384 965.657 11.6387" stroke="#FF61D6" stroke-width="0.1719" stroke-miterlimit="10"/>
<path d="M53.4626 919.069C53.4626 919.069 31.3009 758.649 154.337 793.757C277.117 828.866 385.379 845.07 503.065 808.611C509.433 806.721 514.783 802.67 520.387 800.509C723.408 721.649 474.535 393.246 712.2 433.487C721.625 435.107 731.305 437.808 742.004 440.508C1010.49 512.887 1161.8 354.897 966.168 11.3701" stroke="#FF61D6" stroke-width="0.1719" stroke-miterlimit="10"/>
<path d="M53.975 920.689C53.975 920.689 31.8133 759.188 156.632 796.458C281.196 833.727 390.476 851.281 507.398 814.282C513.766 812.392 519.116 808.341 524.975 805.91C725.704 725.16 478.613 394.596 715.26 434.836C724.685 436.457 734.619 439.158 745.063 441.858C1013.55 515.047 1165.63 358.137 966.425 10.8296" stroke="#FF61D6" stroke-width="0.1719" stroke-miterlimit="10"/>
<path d="M54.7422 922.309C54.7422 922.309 32.5805 759.458 159.182 799.158C285.275 838.588 395.574 857.493 511.732 819.683C518.1 817.523 523.449 813.472 529.308 811.041C727.999 728.67 482.692 395.677 718.319 436.187C727.745 437.807 737.679 440.508 748.378 443.479C1016.87 517.747 1169.45 361.918 966.938 10.8296" stroke="#FF61D6" stroke-width="0.1719" stroke-miterlimit="10"/>
<path d="M55.5047 923.66C55.5047 923.66 33.343 759.729 161.728 801.589C289.858 843.18 400.922 863.705 516.315 825.085C522.683 822.925 528.033 818.874 533.892 816.443C730.545 732.452 487.021 397.027 721.884 437.808C731.309 439.428 741.244 442.129 751.942 445.099C1020.18 520.178 1173.52 365.429 967.7 10.5601" stroke="#FF61D6" stroke-width="0.1719" stroke-miterlimit="10"/>
<path d="M56.0159 925.28C56.0159 925.28 33.8542 760.268 164.022 804.289C293.936 848.04 405.763 870.186 520.393 830.486C526.761 828.325 532.11 824.004 537.969 821.573C732.584 735.962 490.589 398.107 724.688 439.157C734.113 440.778 744.047 443.478 754.746 446.719C1022.98 522.608 1177.09 368.939 967.702 10.2891" stroke="#FF61D6" stroke-width="0.1719" stroke-miterlimit="10"/>
<path d="M56.7763 926.631C56.7763 926.631 34.6146 760.539 166.311 806.72C298.008 852.632 410.599 876.128 524.719 835.888C531.088 833.727 536.437 829.406 542.296 826.705C734.873 739.473 494.661 399.458 727.741 440.508C737.166 442.128 747.1 444.829 758.054 448.07C1026.29 525.039 1180.91 372.451 967.953 10.0195" stroke="#FF61D6" stroke-width="0.1719" stroke-miterlimit="10"/>
<path d="M57.542 928.253C57.542 928.253 35.1255 761.08 168.86 809.152C302.085 857.225 415.95 882.341 529.306 841.291C535.674 838.86 541.024 834.539 546.882 831.838C737.422 742.986 498.738 400.539 731.054 441.86C740.479 443.48 750.668 446.451 761.367 449.422C1029.34 527.471 1184.73 375.963 968.464 9.75098" stroke="#FF61D6" stroke-width="0.1719" stroke-miterlimit="10"/>
<path d="M58.0493 929.871C58.0493 929.871 35.6329 761.619 171.15 811.851C306.158 862.084 420.788 888.551 533.379 846.69C539.748 844.259 545.097 839.938 550.956 837.238C739.458 746.765 502.557 401.888 733.854 443.478C743.279 445.099 753.468 448.07 764.167 451.31C1032.65 529.9 1188.55 379.472 968.717 9.479" stroke="#FF61D6" stroke-width="0.1719" stroke-miterlimit="10"/>
<path d="M58.8153 931.223C58.8153 931.223 36.3988 761.89 173.699 814.283C310.491 866.677 425.884 894.764 537.966 852.093C544.335 849.662 549.684 845.341 555.543 842.37C742.262 750.277 506.634 402.97 737.167 444.83C746.592 446.451 756.781 449.421 767.735 452.662C1035.71 532.062 1192.37 382.985 969.228 9.21045" stroke="#FF61D6" stroke-width="0.1719" stroke-miterlimit="10"/>
<path d="M59.5801 932.842C59.5801 932.842 37.1637 762.429 176.247 816.983C314.822 871.537 430.98 900.974 542.552 857.493C548.921 855.063 554.27 850.472 560.129 847.501C744.81 754.057 510.965 404.049 740.479 446.18C749.904 447.8 760.093 450.771 771.047 454.012C1039.03 534.222 1196.19 386.225 969.738 8.66943" stroke="#FF61D6" stroke-width="0.1719" stroke-miterlimit="10"/>
<path d="M60.0898 934.461C60.0898 934.461 37.6734 762.968 178.54 819.682C318.898 876.397 436.074 907.454 546.628 863.163C552.996 860.463 558.601 856.141 564.459 853.171C747.102 758.107 514.787 405.938 743.536 448.069C753.216 449.959 763.15 452.66 774.359 456.171C1042.34 537.461 1200.27 390.274 969.993 8.93799" stroke="#FF61D6" stroke-width="0.1719" stroke-miterlimit="10"/>
<path d="M60.8502 935.813C60.8502 935.813 38.4338 763.24 181.084 822.114C323.224 880.989 441.165 913.397 551.21 868.566C557.578 865.865 563.182 861.274 569.041 858.303C749.901 761.619 518.859 407.02 746.844 449.42C756.524 451.311 766.713 454.012 777.666 457.523C1045.39 539.623 1204.09 393.786 970.499 8.66943" stroke="#FF61D6" stroke-width="0.1719" stroke-miterlimit="10"/>
<path d="M61.6186 937.434C61.6186 937.434 39.2022 763.51 183.381 824.545C327.304 885.31 446.009 919.609 555.544 873.698C562.167 870.997 567.517 866.406 573.375 863.165C752.197 765.13 522.938 407.83 749.905 450.501C759.585 452.391 769.774 455.362 780.727 458.603C1048.45 541.514 1207.66 396.757 970.758 7.85938" stroke="#FF61D6" stroke-width="0.1719" stroke-miterlimit="10"/>
<path d="M62.1303 939.054C62.1303 939.054 39.7139 764.05 185.675 827.246C331.382 890.172 450.852 925.821 559.622 879.369C566.245 876.668 571.595 872.077 577.453 868.566C754.492 768.911 526.507 409.18 752.709 452.121C762.389 454.012 772.578 456.983 783.786 460.493C1051.76 544.215 1211.48 400.538 971.015 7.85938" stroke="#FF61D6" stroke-width="0.1719" stroke-miterlimit="10"/>
<path d="M62.8927 940.403C62.8927 940.403 40.4762 764.319 188.221 829.676C335.711 894.762 455.944 931.761 564.206 884.499C570.829 881.529 576.178 876.938 582.037 873.697C757.038 772.421 530.836 410.53 756.019 453.471C765.699 455.361 775.888 458.332 787.096 461.843C1054.82 546.374 1215.3 403.778 971.522 7.58838" stroke="#FF61D6" stroke-width="0.1719" stroke-miterlimit="10"/>
<path d="M63.6597 942.024C63.6597 942.024 41.2432 764.859 190.771 832.376C340.044 899.623 461.297 938.243 568.793 890.171C575.417 887.2 580.766 882.609 586.625 879.098C759.843 776.472 534.914 411.881 759.333 455.091C769.013 456.982 779.202 459.953 790.41 463.464C1058.13 549.075 1219.12 407.559 971.78 7.3186" stroke="#FF61D6" stroke-width="0.1719" stroke-miterlimit="10"/>
<path d="M64.1653 943.645C64.1653 943.645 41.7489 765.4 193.06 835.077C344.116 904.485 466.133 944.455 572.865 895.843C579.488 892.872 584.838 888.011 590.697 884.5C762.131 780.524 538.731 413.231 762.131 456.712C771.811 458.603 782.255 461.573 793.463 465.354C1060.93 551.776 1222.94 411.341 972.031 7.31885" stroke="#FF61D6" stroke-width="0.1719" stroke-miterlimit="10"/>
<path d="M64.9287 944.997C64.9287 944.997 42.2575 765.671 195.606 837.51C348.446 909.078 471.226 950.398 577.45 900.976C584.073 898.005 589.422 893.144 595.281 889.633C764.678 784.036 542.806 414.313 765.442 458.064C775.122 459.954 785.566 462.925 796.774 466.706C1064.24 553.938 1226.76 414.583 972.539 7.05029" stroke="#FF61D6" stroke-width="0.1719" stroke-miterlimit="10"/>
<path d="M65.693 946.616C65.693 946.616 43.0218 766.211 198.154 839.939C352.776 913.668 476.321 956.609 582.035 906.376C588.658 903.135 594.007 898.544 599.866 894.763C767.48 787.816 547.137 415.662 768.754 459.413C778.434 461.304 788.878 464.545 800.34 468.056C1067.81 556.098 1230.84 418.093 973.304 6.50928" stroke="#FF61D6" stroke-width="0.1719" stroke-miterlimit="10"/>
<path d="M66.2067 948.237C66.2067 948.237 43.5356 766.751 200.196 842.64C356.601 918.529 480.911 962.82 585.86 912.047C592.483 908.807 597.833 903.945 603.692 900.164C769.522 791.597 550.452 417.013 771.305 461.034C780.985 462.924 791.429 466.165 802.892 469.946C1070.36 558.798 1234.15 421.874 973.053 6.50928" stroke="#FF61D6" stroke-width="0.1719" stroke-miterlimit="10"/>
<path d="M66.972 949.587C66.972 949.587 44.3008 767.021 202.744 845.07C360.933 923.12 486.006 968.761 590.447 917.178C597.07 913.938 602.674 909.076 608.532 905.025C772.58 795.108 555.039 417.823 774.873 462.114C784.552 464.004 794.996 467.245 806.459 471.026C1073.93 560.689 1238.23 424.844 973.818 5.96875" stroke="#FF61D6" stroke-width="0.1719" stroke-miterlimit="10"/>
<path d="M67.7282 951.207C67.7282 951.207 45.0571 767.561 205.284 847.771C365.255 927.981 491.093 974.973 595.024 922.85C601.647 919.609 607.251 914.748 613.11 910.697C775.629 799.429 559.107 419.443 778.176 464.004C787.856 465.895 798.555 469.136 810.018 472.917C1077.23 563.389 1242.3 428.895 974.32 5.96887" stroke="#FF61D6" stroke-width="0.1719" stroke-miterlimit="10"/>
<path d="M68.2364 952.828C68.2364 952.828 45.5653 767.831 207.575 850.472C369.33 932.843 495.932 981.455 599.098 928.252C605.721 924.741 611.325 919.88 617.184 915.829C777.92 802.94 562.672 420.794 780.977 465.355C790.912 467.246 801.356 470.486 812.818 474.537C1080.03 565.82 1245.86 432.407 974.319 5.69922" stroke="#FF61D6" stroke-width="0.1719" stroke-miterlimit="10"/>
<path d="M69.0032 954.177C69.0032 954.177 46.332 768.1 210.125 852.902C373.663 937.433 501.029 987.396 603.686 933.652C610.309 930.141 615.913 925.28 621.772 920.959C780.725 806.72 567.004 421.873 784.291 466.705C794.226 468.595 804.67 471.836 816.133 475.887C1083.35 567.98 1249.69 435.647 974.831 5.42822" stroke="#FF61D6" stroke-width="0.1719" stroke-miterlimit="10"/>
<path d="M69.7704 955.798C69.7704 955.798 47.0992 768.641 212.675 855.332C377.996 942.024 506.127 993.337 608.274 939.054C614.897 935.543 620.501 930.411 626.36 926.36C783.785 810.771 571.083 423.223 787.606 468.325C797.54 470.485 807.984 473.726 819.702 477.777C1086.92 570.681 1253.77 439.698 975.598 5.42822" stroke="#FF61D6" stroke-width="0.1719" stroke-miterlimit="10"/>
<path d="M70.2842 957.418C70.2842 957.418 47.613 769.18 214.972 858.033C382.076 946.885 510.971 999.548 612.354 944.454C618.977 940.944 624.581 935.812 630.44 931.491C786.082 814.282 574.909 424.573 790.412 469.675C800.347 471.835 811.045 475.076 822.508 479.127C1089.72 573.111 1257.34 442.938 975.602 4.8877" stroke="#FF61D6" stroke-width="0.1719" stroke-miterlimit="10"/>
<path d="M71.0447 958.77C71.0447 958.77 48.3735 769.452 217.261 860.465C386.148 951.478 515.807 1005.76 616.681 949.858C623.304 946.077 628.908 941.215 634.767 936.624C788.88 818.064 578.726 425.656 793.465 471.027C803.4 473.188 814.098 476.428 825.816 480.479C1093.03 575.273 1261.15 446.181 975.853 4.34937" stroke="#FF61D6" stroke-width="0.1719" stroke-miterlimit="10"/>
<path d="M71.8036 960.388C71.8036 960.388 49.1324 769.72 219.803 863.164C390.473 955.797 520.896 1011.97 621.261 955.257C627.884 951.476 633.743 946.345 639.347 941.753C791.677 821.843 583.051 426.734 796.771 472.375C806.706 474.536 817.405 477.776 829.122 482.098C1096.34 577.432 1265.22 449.689 976.357 4.07715" stroke="#FF61D6" stroke-width="0.1719" stroke-miterlimit="10"/>
<path d="M72.5725 962.009C72.5725 962.009 49.9013 770.26 222.355 865.864C394.809 960.658 525.996 1018.18 625.596 960.928C632.219 957.147 638.078 952.016 643.682 947.425C794.483 825.894 586.877 428.624 799.833 473.996C809.767 476.156 820.466 479.397 832.184 483.718C1099.14 580.132 1268.79 453.47 976.617 4.07715" stroke="#FF61D6" stroke-width="0.1719" stroke-miterlimit="10"/>
<path d="M73.0837 963.359C73.0837 963.359 50.4125 770.53 224.649 868.295C398.886 965.249 530.583 1024.12 629.928 966.329C636.551 962.278 642.41 957.417 648.269 952.556C797.542 829.675 591.209 429.704 803.146 475.346C813.081 477.506 823.779 480.747 835.752 485.068C1102.71 582.292 1272.87 456.711 977.383 3.53662" stroke="#FF61D6" stroke-width="0.1719" stroke-miterlimit="10"/>
<path d="M73.8438 964.979C73.8438 964.979 51.1726 771.07 227.193 870.725C403.212 969.84 535.673 1030.34 634.509 971.46C641.132 967.409 646.991 962.278 652.85 957.417C800.34 833.186 595.026 430.784 806.199 476.696C816.133 478.856 827.087 482.367 838.804 486.688C1105.76 584.723 1276.43 460.492 977.634 3.53662" stroke="#FF61D6" stroke-width="0.1719" stroke-miterlimit="10"/>
<path d="M74.6058 966.332C74.6058 966.332 51.9346 771.343 229.738 873.159C407.541 974.434 540.766 1036.28 638.837 976.865C645.461 972.814 651.319 967.683 657.178 962.821C803.394 836.97 599.099 432.138 809.508 478.049C819.443 480.21 830.396 483.721 842.114 488.042C1109.07 586.887 1280.51 463.736 977.886 2.99951" stroke="#FF61D6" stroke-width="0.1719" stroke-miterlimit="10"/>
<path d="M75.1166 967.952C75.1166 967.952 52.4454 771.883 232.032 875.859C411.618 979.295 545.607 1042.49 643.169 982.266C649.792 978.215 655.651 973.084 661.51 967.952C806.198 840.75 603.176 433.218 812.566 479.399C822.501 481.56 833.454 485.071 845.427 489.392C1112.39 589.047 1284.33 466.976 978.397 2.45898" stroke="#FF61D6" stroke-width="0.1719" stroke-miterlimit="10"/>
<path d="M75.8814 969.571C75.8814 969.571 53.2102 772.421 234.325 878.558C415.694 984.155 550.447 1048.7 647.5 987.936C654.123 983.615 660.237 978.483 665.841 973.352C809 844.53 606.998 434.566 815.623 481.018C825.558 483.179 836.511 486.689 848.484 491.281C1115.44 591.746 1287.9 471.026 978.652 2.72754" stroke="#FF61D6" stroke-width="0.1719" stroke-miterlimit="10"/>
<path d="M76.6428 970.921C76.6428 970.921 53.9716 772.691 236.869 880.988C420.022 989.016 555.284 1054.64 651.828 993.337C658.706 989.016 664.565 983.884 670.169 978.483C811.8 848.31 611.071 435.916 818.678 482.368C828.612 484.528 839.566 488.039 851.793 492.631C1118.75 593.906 1291.97 474.266 979.159 2.18701" stroke="#FF61D6" stroke-width="0.1719" stroke-miterlimit="10"/>
<path d="M77.1491 972.542C77.1491 972.542 54.2232 773.231 239.159 883.689C424.094 993.877 560.121 1060.85 656.155 998.738C663.033 994.417 668.892 989.016 674.496 983.884C814.853 852.091 614.889 437.267 821.731 483.988C831.92 486.149 842.874 489.66 854.846 494.251C1121.81 596.337 1295.53 477.777 979.41 1.91699" stroke="#FF61D6" stroke-width="0.1719" stroke-miterlimit="10"/>
<path d="M77.9243 974.162C77.9243 974.162 54.9984 773.772 241.717 886.12C428.436 998.468 565.227 1067.07 660.751 1004.14C667.629 999.818 673.488 994.417 679.092 989.016C817.921 855.872 618.975 438.887 825.054 485.339C835.243 487.769 846.196 491.01 858.169 495.871C1125.13 598.767 1299.37 481.288 979.931 1.91699" stroke="#FF61D6" stroke-width="0.1719" stroke-miterlimit="10"/>
<path d="M78.6881 975.513C78.6881 975.513 55.7622 774.043 244.264 888.552C432.766 1003.06 570.066 1073.01 665.081 1009.27C671.959 1004.68 677.818 999.55 683.422 993.878C820.978 859.114 623.051 439.698 828.11 486.42C838.299 488.851 849.253 492.362 861.48 496.953C1128.44 600.119 1303.44 484.53 980.185 1.10791" stroke="#FF61D6" stroke-width="0.1719" stroke-miterlimit="10"/>
<path d="M79.1925 977.132C79.1925 977.132 56.2666 774.581 246.551 891.251C436.836 1007.92 574.901 1079.22 669.407 1014.94C676.285 1010.35 682.143 1004.95 687.748 999.548C823.774 863.434 626.867 441.317 831.162 488.309C841.351 490.74 852.305 494.251 864.532 498.842C1131.75 603.088 1307.26 488.309 980.689 1.37646" stroke="#FF61D6" stroke-width="0.1719" stroke-miterlimit="10"/>
<path d="M79.9511 978.753C79.9511 978.753 57.0252 775.121 249.093 893.951C441.161 1012.78 579.736 1085.43 673.986 1020.61C680.864 1016.02 686.978 1010.62 692.582 1004.95C827.335 867.215 631.446 442.668 834.722 489.93C844.912 492.36 856.12 495.871 868.092 500.732C1135.05 605.789 1311.07 492.09 981.193 1.37646" stroke="#FF61D6" stroke-width="0.1719" stroke-miterlimit="10"/>
<path d="M80.7176 980.104C80.7176 980.104 57.7917 775.393 251.388 896.383C444.985 1017.37 584.578 1091.37 678.064 1025.75C855.103 901.514 604.447 395.947 871.151 501.814C1137.86 607.68 1314.89 495.332 981.45 0.567383" stroke="#FF61D6" stroke-width="0.1719" stroke-miterlimit="10"/>
<path d="M1300.88 1873.49C1300.88 1873.49 1136.58 1329.3 1541.1 1380.34C1945.61 1431.39 1679.67 1001.44 2070.18 889.36C2493.54 767.83 2653 1148.09 2653 1148.09" stroke="#61CAFF" stroke-width="0.3702" stroke-miterlimit="10"/>
<path d="M1305.98 1872.68C1305.98 1872.68 1142.44 1334.16 1544.41 1383.86C1580.32 1388.45 1610.89 1388.99 1637.13 1386.56C1903.83 1361.17 1720.94 1000.9 2071.19 899.894C2487.93 779.714 2646.38 1152.14 2649.69 1155.38" stroke="#61CAFF" stroke-width="0.3702" stroke-miterlimit="10"/>
<path d="M1311.33 1871.87C1311.33 1871.87 1148.55 1338.75 1547.72 1387.37C1583.13 1391.69 1613.44 1392.5 1639.68 1390.07C1904.6 1365.49 1727.05 1010.35 2072.21 910.157C2482.58 791.327 2639.5 1156.19 2646.38 1162.13" stroke="#61CAFF" stroke-width="0.3702" stroke-miterlimit="10"/>
<path d="M1316.43 1871.06C1316.43 1871.06 1154.16 1343.34 1551.03 1390.88C1586.19 1395.2 1616.25 1395.74 1642.23 1393.58C1905.37 1369.81 1733.17 1019.8 2073.23 920.687C2476.99 803.208 2632.63 1160.24 2643.07 1169.42" stroke="#61CAFF" stroke-width="0.3702" stroke-miterlimit="10"/>
<path d="M1321.77 1869.98C1321.77 1869.98 1160.27 1347.66 1554.34 1393.85C1588.98 1397.9 1618.79 1398.71 1644.77 1396.55C1906.12 1373.59 1739.27 1028.71 2074.5 930.409C2471.63 814.28 2626 1163.48 2639.75 1175.9" stroke="#61CAFF" stroke-width="0.3702" stroke-miterlimit="10"/>
<path d="M1326.87 1869.17C1326.87 1869.17 1166.13 1352.26 1557.66 1397.36C1592.05 1401.41 1621.59 1402.22 1647.32 1400.06C1906.89 1377.91 1745.65 1038.17 2075.53 940.943C2466.03 826.164 2619.13 1167.8 2636.45 1183.19" stroke="#61CAFF" stroke-width="0.3702" stroke-miterlimit="10"/>
<path d="M1332.22 1868.36C1332.22 1868.36 1171.99 1356.85 1560.97 1400.87C1594.85 1404.92 1624.14 1405.46 1649.87 1403.3C1907.66 1381.69 1751.76 1047.62 2076.55 950.935C2460.68 837.506 2612.5 1171.31 2633.14 1189.68" stroke="#61CAFF" stroke-width="0.3702" stroke-miterlimit="10"/>
<path d="M1337.31 1867.55C1337.31 1867.55 1177.85 1360.63 1564.28 1404.38C1597.9 1408.16 1626.94 1408.97 1652.41 1406.81C1908.42 1386.01 1757.87 1057.07 2077.56 961.197C2455.08 849.119 2605.62 1175.36 2629.82 1196.7" stroke="#61CAFF" stroke-width="0.3702" stroke-miterlimit="10"/>
<path d="M1342.66 1866.74C1342.66 1866.74 1183.96 1364.95 1567.59 1407.89C1600.7 1411.67 1629.49 1412.21 1654.96 1410.32C1909.18 1390.34 1764.24 1066.53 2078.83 971.732C2449.72 861.004 2599 1179.41 2626.76 1203.99" stroke="#61CAFF" stroke-width="0.3702" stroke-miterlimit="10"/>
<path d="M1347.76 1865.93C1347.76 1865.93 1189.82 1369.54 1570.9 1411.13C1603.76 1414.64 1632.29 1415.45 1657.51 1413.56C1909.95 1394.39 1770.36 1075.71 2079.86 981.725C2444.13 872.347 2592.13 1183.2 2623.2 1210.74" stroke="#61CAFF" stroke-width="0.3702" stroke-miterlimit="10"/>
<path d="M1353.1 1865.12C1353.1 1865.12 1195.68 1374.13 1574.21 1414.64C1606.56 1418.15 1634.84 1418.96 1660.05 1417.07C1910.71 1398.71 1776.47 1085.16 2080.87 992.257C2438.77 884.23 2585.5 1187.25 2619.88 1217.76" stroke="#61CAFF" stroke-width="0.3702" stroke-miterlimit="10"/>
<path d="M1358.2 1864.3C1358.2 1864.3 1201.54 1378.45 1577.52 1418.15C1609.62 1421.39 1637.64 1422.2 1662.6 1420.58C1911.47 1403.03 1782.83 1094.61 2081.89 1002.52C2433.17 895.841 2578.62 1191.03 2616.57 1224.78" stroke="#61CAFF" stroke-width="0.3702" stroke-miterlimit="10"/>
<path d="M1363.55 1863.5C1363.55 1863.5 1207.65 1383.05 1580.84 1421.66C1612.42 1424.91 1640.19 1425.72 1665.15 1424.1C1912.24 1407.35 1788.7 1103.52 2083.17 1013.05C2427.57 907.185 2572 1195.35 2613.52 1232.08" stroke="#61CAFF" stroke-width="0.3702" stroke-miterlimit="10"/>
<path d="M1368.64 1862.68C1368.64 1862.68 1213.26 1387.63 1584.15 1425.17C1615.48 1428.41 1642.99 1429.22 1667.7 1427.6C1913.01 1411.67 1794.81 1112.97 2084.19 1023.31C2422.21 918.526 2565.12 1199.13 2609.95 1239.1" stroke="#61CAFF" stroke-width="0.3702" stroke-miterlimit="10"/>
<path d="M1373.74 1861.88C1373.74 1861.88 1219.12 1392.23 1587.21 1428.42C1618.03 1431.39 1645.29 1432.2 1669.99 1430.85C1913.26 1415.72 1800.93 1122.16 2084.95 1033.58C2416.36 930.142 2557.99 1203.18 2606.39 1245.85" stroke="#61CAFF" stroke-width="0.3702" stroke-miterlimit="10"/>
<path d="M1379.09 1861.07C1379.09 1861.07 1225.23 1396.55 1590.51 1431.93C1621.08 1434.9 1648.08 1435.71 1672.54 1434.36C1914.02 1420.04 1807.04 1131.61 2085.97 1043.84C2410.75 941.754 2551.36 1206.96 2603.08 1252.87" stroke="#61CAFF" stroke-width="0.3702" stroke-miterlimit="10"/>
<path d="M1384.18 1860.26C1384.18 1860.26 1231.09 1401.14 1593.83 1435.44C1623.89 1438.41 1650.63 1438.95 1675.09 1437.87C1914.79 1424.37 1813.15 1141.06 2087.24 1054.37C2405.4 953.637 2544.74 1211.28 2600.02 1260.16" stroke="#61CAFF" stroke-width="0.3702" stroke-miterlimit="10"/>
<path d="M1389.53 1859.44C1389.53 1859.44 1236.94 1405.73 1597.13 1438.95C1626.94 1441.65 1653.43 1442.46 1677.63 1441.38C1915.55 1428.69 1819.26 1150.52 2088.26 1064.63C2399.79 965.249 2537.86 1215.06 2596.7 1267.19" stroke="#61CAFF" stroke-width="0.3702" stroke-miterlimit="10"/>
<path d="M1394.62 1858.63C1394.62 1858.63 1242.8 1410.32 1600.44 1442.19C1629.74 1444.89 1655.98 1445.7 1680.18 1444.35C1916.31 1432.2 1825.63 1159.43 2089.28 1074.63C2394.19 976.322 2530.98 1218.57 2593.14 1273.94" stroke="#61CAFF" stroke-width="0.3702" stroke-miterlimit="10"/>
<path d="M1399.97 1857.82C1399.97 1857.82 1248.91 1414.64 1603.76 1445.7C1632.54 1448.13 1658.78 1448.94 1682.72 1447.86C1917.08 1437.06 1831.74 1168.88 2090.29 1084.89C2388.84 987.934 2524.36 1222.62 2589.82 1280.69" stroke="#61CAFF" stroke-width="0.3702" stroke-miterlimit="10"/>
<path d="M1405.07 1857.01C1405.07 1857.01 1254.52 1419.23 1607.07 1449.21C1635.6 1451.64 1661.33 1452.45 1685.27 1451.37C1917.84 1441.38 1837.86 1178.33 2091.57 1095.15C2383.49 999.547 2517.74 1226.4 2586.77 1287.71" stroke="#61CAFF" stroke-width="0.3702" stroke-miterlimit="10"/>
<path d="M1410.42 1856.2C1410.42 1856.2 1260.63 1423.82 1610.38 1452.72C1638.4 1455.15 1664.13 1455.96 1687.56 1454.88C1918.35 1445.7 1843.72 1187.78 2092.33 1105.68C2377.63 1011.43 2510.6 1230.73 2583.2 1295" stroke="#61CAFF" stroke-width="0.3702" stroke-miterlimit="10"/>
<path d="M1415.51 1855.39C1415.51 1855.39 1266.49 1428.42 1613.69 1456.23C1641.46 1458.39 1666.68 1459.2 1690.11 1458.39C1919.12 1450.02 1850.09 1197.24 2093.35 1115.95C2372.03 1023.04 2503.73 1234.51 2579.64 1302.02" stroke="#61CAFF" stroke-width="0.3702" stroke-miterlimit="10"/>
<path d="M1420.86 1854.58C1420.86 1854.58 1272.35 1433.01 1617 1459.47C1644.26 1461.64 1669.48 1462.45 1692.66 1461.64C1919.88 1454.07 1856.2 1206.42 2094.62 1126.21C2366.68 1034.66 2497.1 1238.29 2576.58 1308.78" stroke="#61CAFF" stroke-width="0.3702" stroke-miterlimit="10"/>
<path d="M1425.96 1853.77C1425.96 1853.77 1278.21 1437.6 1620.32 1462.98C1647.32 1464.87 1672.03 1465.95 1695.21 1465.14C1920.65 1458.39 1862.31 1215.87 2095.65 1136.47C2361.33 1046.27 2490.48 1242.34 2573.27 1315.8" stroke="#61CAFF" stroke-width="0.3702" stroke-miterlimit="10"/>
<path d="M1431.31 1852.69C1431.31 1852.69 1284.33 1441.92 1623.63 1466.23C1650.12 1468.12 1674.83 1468.93 1697.76 1468.39C1921.41 1462.45 1868.43 1225.06 2096.67 1146.74C2355.73 1057.88 2483.61 1246.12 2569.96 1322.82" stroke="#61CAFF" stroke-width="0.3702" stroke-miterlimit="10"/>
<path d="M1436.4 1851.88C1436.4 1851.88 1289.93 1446.51 1626.94 1469.74C1653.18 1471.63 1677.37 1472.44 1700.3 1471.9C1922.17 1466.77 1874.79 1234.51 2097.68 1157C2350.12 1069.23 2476.72 1250.17 2566.39 1329.84" stroke="#61CAFF" stroke-width="0.3702" stroke-miterlimit="10"/>
<path d="M1441.75 1851.07C1441.75 1851.07 1296.05 1451.1 1630.25 1473.25C1655.98 1474.87 1680.18 1475.68 1702.85 1475.41C1922.94 1471.09 1880.91 1243.96 2098.96 1167.53C2344.78 1081.11 2470.11 1254.22 2563.34 1336.86" stroke="#61CAFF" stroke-width="0.3702" stroke-miterlimit="10"/>
<path d="M1446.85 1850.26C1446.85 1850.26 1301.91 1455.69 1633.57 1476.49C1659.04 1478.11 1682.73 1478.92 1705.4 1478.65C1923.71 1475.14 1887.03 1253.14 2099.98 1177.52C2339.43 1092.45 2463.49 1258 2560.03 1343.61" stroke="#61CAFF" stroke-width="0.3702" stroke-miterlimit="10"/>
<path d="M1452.19 1849.45C1452.19 1849.45 1307.76 1460.28 1636.87 1480C1661.84 1481.62 1685.53 1482.43 1707.94 1482.16C1924.47 1479.46 1893.39 1262.59 2101 1188.06C2333.82 1104.33 2456.6 1262.05 2556.71 1350.91" stroke="#61CAFF" stroke-width="0.3702" stroke-miterlimit="10"/>
<path d="M1457.29 1848.64C1457.29 1848.64 1313.63 1464.88 1640.19 1483.51C1664.9 1484.86 1688.08 1485.67 1710.5 1485.4C1924.98 1483.24 1899.51 1271.78 2102.02 1198.05C2328.22 1115.68 2449.73 1265.57 2553.41 1357.66" stroke="#61CAFF" stroke-width="0.3702" stroke-miterlimit="10"/>
<path d="M1462.39 1847.83C1462.39 1847.83 1319.48 1469.47 1643.25 1487.02C1667.45 1488.37 1690.63 1489.18 1712.79 1488.91C1925.49 1487.56 1905.37 1281.23 2103.04 1208.31C2322.62 1127.29 2442.85 1269.62 2549.84 1364.41" stroke="#61CAFF" stroke-width="0.3702" stroke-miterlimit="10"/>
<path d="M1467.74 1847.02C1467.74 1847.02 1325.34 1474.06 1646.81 1490.26C1670.76 1491.61 1693.43 1492.42 1715.59 1492.15C1926.51 1490.53 1911.74 1290.41 2104.31 1218.57C2317.27 1138.9 2436.23 1273.4 2546.78 1371.43" stroke="#61CAFF" stroke-width="0.3702" stroke-miterlimit="10"/>
<path d="M1472.83 1846.21C1472.83 1846.21 1331.19 1478.65 1649.86 1493.77C1673.3 1494.85 1695.97 1495.66 1717.88 1495.66C1927.01 1494.85 1917.84 1299.86 2105.07 1228.84C2311.66 1150.52 2429.34 1277.45 2543.21 1378.45" stroke="#61CAFF" stroke-width="0.3702" stroke-miterlimit="10"/>
<path d="M1478.18 1845.4C1478.18 1845.4 1337.05 1483.24 1653.43 1497.29C1676.61 1498.37 1698.77 1499.18 1720.68 1499.18C1928.03 1500.26 1924.21 1309.59 2106.35 1239.37C2306.31 1162.4 2422.72 1281.5 2540.15 1385.75" stroke="#61CAFF" stroke-width="0.3702" stroke-miterlimit="10"/>
<path d="M1483.27 1844.59C1483.27 1844.59 1342.92 1487.83 1656.49 1500.79C1679.16 1501.6 1701.32 1502.41 1722.98 1502.68C1928.55 1504.58 1930.07 1319.04 2107.37 1249.63C2300.71 1174.01 2415.85 1285.28 2536.59 1392.77" stroke="#61CAFF" stroke-width="0.3702" stroke-miterlimit="10"/>
<path d="M1488.62 1843.78C1488.62 1843.78 1349.03 1492.42 1659.8 1504.31C1682.22 1505.12 1703.87 1505.93 1725.52 1506.2C1929.31 1508.9 1936.19 1328.49 2108.39 1260.16C2295.1 1185.9 2408.97 1289.6 2533.28 1399.79" stroke="#61CAFF" stroke-width="0.3702" stroke-miterlimit="10"/>
<path d="M1493.72 1842.97C1493.72 1842.97 1354.63 1497.28 1663.11 1507.55C1685.02 1508.36 1706.67 1509.17 1728.07 1509.44C1930.07 1512.95 1942.55 1337.67 2109.4 1270.16C2289.75 1197.24 2402.09 1293.11 2529.97 1406.54" stroke="#61CAFF" stroke-width="0.3702" stroke-miterlimit="10"/>
<path d="M1499.07 1842.16C1499.07 1842.16 1360.75 1501.87 1666.43 1511.06C1688.08 1511.6 1709.22 1512.41 1730.62 1512.95C1930.84 1517 1948.67 1347.12 2110.42 1280.69C2284.15 1209.12 2395.47 1297.43 2526.66 1413.83" stroke="#61CAFF" stroke-width="0.3702" stroke-miterlimit="10"/>
<path d="M1504.16 1841.35C1504.16 1841.35 1366.61 1506.47 1669.74 1514.57C1690.88 1515.11 1712.02 1515.92 1733.17 1516.46C1931.6 1521.32 1954.78 1356.85 2111.7 1290.95C2278.8 1220.73 2388.85 1301.21 2523.6 1420.85" stroke="#61CAFF" stroke-width="0.3702" stroke-miterlimit="10"/>
<path d="M1509.51 1840.54C1509.51 1840.54 1372.47 1511.33 1673.05 1518.08C1693.94 1518.62 1714.57 1519.16 1735.72 1519.97C1932.37 1525.37 1961.15 1366.3 2112.72 1301.49C2273.2 1232.89 2381.97 1305.54 2520.04 1427.88" stroke="#61CAFF" stroke-width="0.3702" stroke-miterlimit="10"/>
<path d="M1514.61 1839.73C1514.61 1839.73 1378.33 1515.92 1676.36 1521.59C1696.74 1521.86 1717.38 1522.67 1738.26 1523.48C1933.13 1529.42 1967.27 1375.75 2113.74 1311.75C2267.85 1244.5 2375.09 1309.32 2516.73 1434.9" stroke="#61CAFF" stroke-width="0.3702" stroke-miterlimit="10"/>
<path d="M1519.95 1838.92C1519.95 1838.92 1384.43 1520.78 1679.67 1524.83C1699.54 1525.1 1719.91 1525.64 1740.8 1526.45C1933.89 1533.2 1973.37 1384.66 2114.75 1321.74C2262.24 1255.84 2368.46 1312.83 2513.41 1441.65" stroke="#61CAFF" stroke-width="0.3702" stroke-miterlimit="10"/>
<path d="M1525.05 1838.11C1525.05 1838.11 1390.04 1525.37 1682.98 1528.34C1702.6 1528.61 1722.46 1529.15 1743.35 1529.96C1934.66 1537.52 1979.74 1394.39 2116.03 1332C2256.89 1267.46 2361.84 1316.88 2510.35 1448.67" stroke="#61CAFF" stroke-width="0.3702" stroke-miterlimit="10"/>
<path d="M1530.4 1837.3C1530.4 1837.3 1396.16 1530.23 1686.3 1531.85C1705.4 1531.85 1725.27 1532.66 1745.91 1533.47C1935.17 1541.84 1985.86 1403.84 2117.05 1342.26C2251.55 1279.34 2354.97 1320.66 2506.79 1455.42" stroke="#61CAFF" stroke-width="0.3702" stroke-miterlimit="10"/>
<path d="M1535.49 1836.22C1535.49 1836.22 1402.01 1531.85 1689.6 1535.09C1708.45 1535.36 1727.81 1535.63 1748.44 1536.71C1935.93 1545.89 1991.97 1413.29 2118.06 1352.53C2245.94 1290.95 2348.08 1324.71 2503.47 1462.44" stroke="#61CAFF" stroke-width="0.3702" stroke-miterlimit="10"/>
<path d="M1540.84 1835.41C1540.84 1835.41 1407.87 1536.99 1692.92 1538.34C1711.26 1538.34 1730.62 1538.88 1750.74 1539.96C1936.44 1549.95 1998.08 1422.48 2118.83 1362.52C2240.33 1302.3 2340.95 1328.22 2499.91 1469.2" stroke="#61CAFF" stroke-width="0.3702" stroke-miterlimit="10"/>
<path d="M1545.93 1834.6C1545.93 1834.6 1413.73 1544.28 1696.23 1541.85C1714.31 1541.58 1733.16 1542.12 1753.29 1543.47C1937.2 1554.27 2004.2 1432.2 2120.1 1373.05C2234.99 1314.45 2334.59 1332.54 2496.85 1476.49" stroke="#61CAFF" stroke-width="0.3702" stroke-miterlimit="10"/>
<path d="M1551.04 1833.79C1551.04 1833.79 1419.59 1549.14 1699.29 1545.35C1716.87 1545.08 1735.72 1545.62 1755.59 1546.98C1937.72 1558.59 2010.32 1441.65 2120.87 1383.31C2229.13 1326.06 2327.46 1336.32 2493.03 1483.24" stroke="#61CAFF" stroke-width="0.3702" stroke-miterlimit="10"/>
<path d="M1556.38 1832.98C1556.38 1832.98 1425.45 1554.54 1702.85 1548.87C1720.17 1548.6 1738.51 1549.14 1758.38 1550.49C1938.73 1562.91 2016.68 1451.37 2122.14 1393.85C2224.03 1338.21 2320.83 1340.37 2489.97 1490.53" stroke="#61CAFF" stroke-width="0.3702" stroke-miterlimit="10"/>
<path d="M1561.47 1832.17C1561.47 1832.17 1431.31 1559.13 1705.91 1552.38C1722.72 1552.11 1741.06 1552.38 1760.67 1554C1939.24 1567.23 2022.79 1461.36 2122.9 1404.11C2218.43 1350.1 2313.7 1344.42 2486.41 1497.55" stroke="#61CAFF" stroke-width="0.3702" stroke-miterlimit="10"/>
<path d="M1566.82 1831.36C1566.82 1831.36 1421.12 1530.23 1763.48 1557.24C2105.84 1584.24 2119.34 1181.3 2483.35 1504.3" stroke="#61CAFF" stroke-width="0.3702" stroke-miterlimit="10"/>
<path d="M1214.54 446.719C1300.78 446.719 1370.69 372.599 1370.69 281.167C1370.69 189.735 1300.78 115.615 1214.54 115.615C1128.3 115.615 1058.39 189.735 1058.39 281.167C1058.39 372.599 1128.3 446.719 1214.54 446.719Z" fill="#F2F2F2"/>
<path d="M1863.6 1749.53C1949.84 1749.53 2019.75 1675.41 2019.75 1583.98C2019.75 1492.54 1949.84 1418.42 1863.6 1418.42C1777.36 1418.42 1707.44 1492.54 1707.44 1583.98C1707.44 1675.41 1777.36 1749.53 1863.6 1749.53Z" fill="#F2F2F2"/>
<path d="M413.461 1116.43C474.442 1051.78 474.442 946.959 413.461 882.307C352.481 817.656 253.613 817.656 192.633 882.307C131.653 946.959 131.653 1051.78 192.633 1116.43C253.613 1181.08 352.481 1181.08 413.461 1116.43Z" fill="#F2F2F2"/>
<path d="M456.947 1715.24C472.16 1625.25 415.679 1539.21 330.793 1523.09C245.907 1506.96 164.762 1566.84 149.549 1656.83C134.336 1746.83 190.817 1832.86 275.703 1848.99C360.589 1865.12 441.735 1805.24 456.947 1715.24Z" fill="#F2F2F2"/>
<path d="M2201.11 414.039C2287.35 414.039 2357.26 339.919 2357.26 248.488C2357.26 157.056 2287.35 82.936 2201.11 82.936C2114.87 82.936 2044.96 157.056 2044.96 248.488C2044.96 339.919 2114.87 414.039 2201.11 414.039Z" fill="#F2F2F2"/>
<path d="M2022.55 345.173C2022.55 347.064 2021.02 348.684 2019.24 348.684C2017.45 348.684 2015.92 347.064 2015.92 345.173C2015.92 343.283 2017.45 341.663 2019.24 341.663C2021.02 341.663 2022.55 343.283 2022.55 345.173Z" fill="#61CAFF"/>
<path d="M2043.19 345.173C2043.19 347.064 2041.66 348.684 2039.87 348.684C2038.09 348.684 2036.56 347.064 2036.56 345.173C2036.56 343.283 2038.09 341.663 2039.87 341.663C2041.66 341.663 2043.19 343.283 2043.19 345.173Z" fill="#61CAFF"/>
<path d="M2064.07 345.173C2064.07 347.064 2062.54 348.684 2060.76 348.684C2058.97 348.684 2057.45 347.064 2057.45 345.173C2057.45 343.283 2058.97 341.663 2060.76 341.663C2062.54 341.663 2064.07 343.283 2064.07 345.173Z" fill="#61CAFF"/>
<path d="M2084.7 345.173C2084.7 347.064 2083.17 348.684 2081.39 348.684C2079.6 348.684 2078.07 347.064 2078.07 345.173C2078.07 343.283 2079.6 341.663 2081.39 341.663C2083.17 341.663 2084.7 343.283 2084.7 345.173Z" fill="#61CAFF"/>
<path d="M2105.34 345.173C2105.34 347.064 2103.81 348.684 2102.02 348.684C2100.24 348.684 2098.71 347.064 2098.71 345.173C2098.71 343.283 2100.24 341.663 2102.02 341.663C2103.81 341.663 2105.34 343.283 2105.34 345.173Z" fill="#61CAFF"/>
<path d="M2125.97 345.173C2125.97 347.064 2124.44 348.684 2122.66 348.684C2120.88 348.684 2119.35 347.064 2119.35 345.173C2119.35 343.283 2120.88 341.663 2122.66 341.663C2124.44 341.663 2125.97 343.283 2125.97 345.173Z" fill="#61CAFF"/>
<path d="M2022.55 366.238C2022.55 368.128 2021.02 369.749 2019.24 369.749C2017.45 369.749 2015.92 368.128 2015.92 366.238C2015.92 364.347 2017.45 362.727 2019.24 362.727C2021.02 362.727 2022.55 364.077 2022.55 366.238Z" fill="#61CAFF"/>
<path d="M2043.19 366.238C2043.19 368.128 2041.66 369.749 2039.87 369.749C2038.09 369.749 2036.56 368.128 2036.56 366.238C2036.56 364.347 2038.09 362.727 2039.87 362.727C2041.66 362.727 2043.19 364.077 2043.19 366.238Z" fill="#61CAFF"/>
<path d="M2064.07 366.238C2064.07 368.128 2062.54 369.749 2060.76 369.749C2058.97 369.749 2057.45 368.128 2057.45 366.238C2057.45 364.347 2058.97 362.727 2060.76 362.727C2062.54 362.727 2064.07 364.077 2064.07 366.238Z" fill="#61CAFF"/>
<path d="M2084.7 366.238C2084.7 368.128 2083.17 369.749 2081.39 369.749C2079.6 369.749 2078.07 368.128 2078.07 366.238C2078.07 364.347 2079.6 362.727 2081.39 362.727C2083.17 362.727 2084.7 364.077 2084.7 366.238Z" fill="#61CAFF"/>
<path d="M2105.34 366.238C2105.34 368.128 2103.81 369.749 2102.02 369.749C2100.24 369.749 2098.71 368.128 2098.71 366.238C2098.71 364.347 2100.24 362.727 2102.02 362.727C2103.81 362.727 2105.34 364.077 2105.34 366.238Z" fill="#61CAFF"/>
<path d="M2125.97 366.238C2125.97 368.128 2124.44 369.749 2122.66 369.749C2120.88 369.749 2119.35 368.128 2119.35 366.238C2119.35 364.347 2120.88 362.727 2122.66 362.727C2124.44 362.727 2125.97 364.077 2125.97 366.238Z" fill="#61CAFF"/>
<path d="M2022.55 387.033C2022.55 388.923 2021.02 390.544 2019.24 390.544C2017.45 390.544 2015.92 388.923 2015.92 387.033C2015.92 385.142 2017.45 383.522 2019.24 383.522C2021.02 383.522 2022.55 384.872 2022.55 387.033Z" fill="#61CAFF"/>
<path d="M2043.19 387.033C2043.19 388.923 2041.66 390.544 2039.87 390.544C2038.09 390.544 2036.56 388.923 2036.56 387.033C2036.56 385.142 2038.09 383.522 2039.87 383.522C2041.66 383.522 2043.19 384.872 2043.19 387.033Z" fill="#61CAFF"/>
<path d="M2064.07 387.033C2064.07 388.923 2062.54 390.544 2060.76 390.544C2058.97 390.544 2057.45 388.923 2057.45 387.033C2057.45 385.142 2058.97 383.522 2060.76 383.522C2062.54 383.522 2064.07 384.872 2064.07 387.033Z" fill="#61CAFF"/>
<path d="M2084.7 387.033C2084.7 388.923 2083.17 390.544 2081.39 390.544C2079.6 390.544 2078.07 388.923 2078.07 387.033C2078.07 385.142 2079.6 383.522 2081.39 383.522C2083.17 383.522 2084.7 384.872 2084.7 387.033Z" fill="#61CAFF"/>
<path d="M2105.34 387.033C2105.34 388.923 2103.81 390.544 2102.02 390.544C2100.24 390.544 2098.71 388.923 2098.71 387.033C2098.71 385.142 2100.24 383.522 2102.02 383.522C2103.81 383.522 2105.34 384.872 2105.34 387.033Z" fill="#61CAFF"/>
<path d="M2125.97 387.033C2125.97 388.923 2124.44 390.544 2122.66 390.544C2120.88 390.544 2119.35 388.923 2119.35 387.033C2119.35 385.142 2120.88 383.522 2122.66 383.522C2124.44 383.522 2125.97 384.872 2125.97 387.033Z" fill="#61CAFF"/>
<path d="M765.184 1437.06C765.184 1438.95 763.655 1440.57 761.872 1440.57C760.089 1440.57 758.561 1438.95 758.561 1437.06C758.561 1435.17 760.089 1433.55 761.872 1433.55C763.655 1433.28 765.184 1434.9 765.184 1437.06Z" fill="#61CAFF"/>
<path d="M785.822 1437.06C785.822 1438.95 784.294 1440.57 782.511 1440.57C780.728 1440.57 779.199 1438.95 779.199 1437.06C779.199 1435.17 780.728 1433.55 782.511 1433.55C784.294 1433.28 785.822 1434.9 785.822 1437.06Z" fill="#61CAFF"/>
<path d="M806.445 1437.06C806.445 1438.95 804.917 1440.57 803.134 1440.57C801.351 1440.57 799.822 1438.95 799.822 1437.06C799.822 1435.17 801.351 1433.55 803.134 1433.55C804.917 1433.28 806.445 1434.9 806.445 1437.06Z" fill="#61CAFF"/>
<path d="M827.084 1437.06C827.084 1438.95 825.556 1440.57 823.773 1440.57C821.989 1440.57 820.461 1438.95 820.461 1437.06C820.461 1435.17 821.989 1433.55 823.773 1433.55C825.81 1433.28 827.084 1434.9 827.084 1437.06Z" fill="#61CAFF"/>
<path d="M847.973 1437.06C847.973 1438.95 846.444 1440.57 844.661 1440.57C842.878 1440.57 841.35 1438.95 841.35 1437.06C841.35 1435.17 842.878 1433.55 844.661 1433.55C846.444 1433.28 847.973 1434.9 847.973 1437.06Z" fill="#61CAFF"/>
<path d="M868.609 1437.06C868.609 1438.95 867.081 1440.57 865.298 1440.57C863.515 1440.57 861.986 1438.95 861.986 1437.06C861.986 1435.17 863.515 1433.55 865.298 1433.55C867.081 1433.28 868.609 1434.9 868.609 1437.06Z" fill="#61CAFF"/>
<path d="M765.184 1457.85C765.184 1459.74 763.655 1461.36 761.872 1461.36C760.089 1461.36 758.561 1459.74 758.561 1457.85C758.561 1455.96 760.089 1454.34 761.872 1454.34C763.655 1454.07 765.184 1455.69 765.184 1457.85Z" fill="#61CAFF"/>
<path d="M785.822 1457.85C785.822 1459.74 784.294 1461.36 782.511 1461.36C780.728 1461.36 779.199 1459.74 779.199 1457.85C779.199 1455.96 780.728 1454.34 782.511 1454.34C784.294 1454.07 785.822 1455.69 785.822 1457.85Z" fill="#61CAFF"/>
<path d="M806.445 1457.85C806.445 1459.74 804.917 1461.36 803.134 1461.36C801.351 1461.36 799.822 1459.74 799.822 1457.85C799.822 1455.96 801.351 1454.34 803.134 1454.34C804.917 1454.07 806.445 1455.69 806.445 1457.85Z" fill="#61CAFF"/>
<path d="M827.084 1457.85C827.084 1459.74 825.556 1461.36 823.773 1461.36C821.989 1461.36 820.461 1459.74 820.461 1457.85C820.461 1455.96 821.989 1454.34 823.773 1454.34C825.81 1454.07 827.084 1455.69 827.084 1457.85Z" fill="#61CAFF"/>
<path d="M847.973 1457.85C847.973 1459.74 846.444 1461.36 844.661 1461.36C842.878 1461.36 841.35 1459.74 841.35 1457.85C841.35 1455.96 842.878 1454.34 844.661 1454.34C846.444 1454.07 847.973 1455.69 847.973 1457.85Z" fill="#61CAFF"/>
<path d="M868.609 1457.85C868.609 1459.74 867.081 1461.36 865.298 1461.36C863.515 1461.36 861.986 1459.74 861.986 1457.85C861.986 1455.96 863.515 1454.34 865.298 1454.34C867.081 1454.07 868.609 1455.69 868.609 1457.85Z" fill="#61CAFF"/>
<path d="M765.184 1478.65C765.184 1480.54 763.655 1482.16 761.872 1482.16C760.089 1482.16 758.561 1480.54 758.561 1478.65C758.561 1476.76 760.089 1475.14 761.872 1475.14C763.655 1474.87 765.184 1476.49 765.184 1478.65Z" fill="#61CAFF"/>
<path d="M785.822 1478.65C785.822 1480.54 784.294 1482.16 782.511 1482.16C780.728 1482.16 779.199 1480.54 779.199 1478.65C779.199 1476.76 780.728 1475.14 782.511 1475.14C784.294 1474.87 785.822 1476.49 785.822 1478.65Z" fill="#61CAFF"/>
<path d="M806.445 1478.65C806.445 1480.54 804.917 1482.16 803.134 1482.16C801.351 1482.16 799.822 1480.54 799.822 1478.65C799.822 1476.76 801.351 1475.14 803.134 1475.14C804.917 1474.87 806.445 1476.49 806.445 1478.65Z" fill="#61CAFF"/>
<path d="M827.084 1478.65C827.084 1480.54 825.556 1482.16 823.773 1482.16C821.989 1482.16 820.461 1480.54 820.461 1478.65C820.461 1476.76 821.989 1475.14 823.773 1475.14C825.81 1474.87 827.084 1476.49 827.084 1478.65Z" fill="#61CAFF"/>
<path d="M847.973 1478.65C847.973 1480.54 846.444 1482.16 844.661 1482.16C842.878 1482.16 841.35 1480.54 841.35 1478.65C841.35 1476.76 842.878 1475.14 844.661 1475.14C846.444 1474.87 847.973 1476.49 847.973 1478.65Z" fill="#61CAFF"/>
<path d="M868.609 1478.65C868.609 1480.54 867.081 1482.16 865.298 1482.16C863.515 1482.16 861.986 1480.54 861.986 1478.65C861.986 1476.76 863.515 1475.14 865.298 1475.14C867.081 1474.87 868.609 1476.49 868.609 1478.65Z" fill="#61CAFF"/>
<path d="M216.998 341.662C216.998 343.553 215.47 345.173 213.687 345.173C211.903 345.173 210.375 343.553 210.375 341.662C210.375 339.772 211.903 338.151 213.687 338.151C215.47 338.151 216.998 339.772 216.998 341.662Z" fill="#61CAFF"/>
<path d="M237.637 341.662C237.637 343.553 236.108 345.173 234.325 345.173C232.542 345.173 231.014 343.553 231.014 341.662C231.014 339.772 232.542 338.151 234.325 338.151C236.108 338.151 237.637 339.772 237.637 341.662Z" fill="#61CAFF"/>
<path d="M258.519 341.662C258.519 343.553 256.991 345.173 255.208 345.173C253.425 345.173 251.896 343.553 251.896 341.662C251.896 339.772 253.425 338.151 255.208 338.151C256.991 338.151 258.519 339.772 258.519 341.662Z" fill="#61CAFF"/>
<path d="M279.153 341.662C279.153 343.553 277.625 345.173 275.842 345.173C274.059 345.173 272.276 343.553 272.276 341.662C272.276 339.772 273.804 338.151 275.587 338.151C277.37 338.151 279.153 339.772 279.153 341.662Z" fill="#61CAFF"/>
<path d="M299.787 341.662C299.787 343.553 298.259 345.173 296.476 345.173C294.692 345.173 293.164 343.553 293.164 341.662C293.164 339.772 294.692 338.151 296.476 338.151C298.259 338.151 299.787 339.772 299.787 341.662Z" fill="#61CAFF"/>
<path d="M320.424 341.662C320.424 343.553 318.895 345.173 317.112 345.173C315.329 345.173 313.801 343.553 313.801 341.662C313.801 339.772 315.329 338.151 317.112 338.151C318.895 338.151 320.424 339.772 320.424 341.662Z" fill="#61CAFF"/>
<path d="M216.998 362.458C216.998 364.349 215.47 365.969 213.687 365.969C211.903 365.969 210.375 364.349 210.375 362.458C210.375 360.568 211.903 358.948 213.687 358.948C215.47 358.948 216.998 360.568 216.998 362.458Z" fill="#61CAFF"/>
<path d="M237.637 362.458C237.637 364.349 236.108 365.969 234.325 365.969C232.542 365.969 231.014 364.349 231.014 362.458C231.014 360.568 232.542 358.948 234.325 358.948C236.108 358.948 237.637 360.568 237.637 362.458Z" fill="#61CAFF"/>
<path d="M258.519 362.458C258.519 364.349 256.991 365.969 255.208 365.969C253.425 365.969 251.896 364.349 251.896 362.458C251.896 360.568 253.425 358.948 255.208 358.948C256.991 358.948 258.519 360.568 258.519 362.458Z" fill="#61CAFF"/>
<path d="M279.149 362.458C279.149 364.349 277.62 365.969 275.837 365.969C274.054 365.969 272.526 364.349 272.526 362.458C272.526 360.568 274.054 358.948 275.837 358.948C277.62 358.948 279.149 360.568 279.149 362.458Z" fill="#61CAFF"/>
<path d="M299.787 362.458C299.787 364.349 298.259 365.969 296.476 365.969C294.692 365.969 293.164 364.349 293.164 362.458C293.164 360.568 294.692 358.948 296.476 358.948C298.259 358.948 299.787 360.568 299.787 362.458Z" fill="#61CAFF"/>
<path d="M320.424 362.458C320.424 364.349 318.895 365.969 317.112 365.969C315.329 365.969 313.801 364.619 313.801 362.458C313.801 360.568 315.329 358.948 317.112 358.948C318.895 358.948 320.424 360.568 320.424 362.458Z" fill="#61CAFF"/>
<path d="M213.687 386.764C215.515 386.764 216.998 385.193 216.998 383.254C216.998 381.315 215.515 379.743 213.687 379.743C211.858 379.743 210.375 381.315 210.375 383.254C210.375 385.193 211.858 386.764 213.687 386.764Z" fill="#61CAFF"/>
<path d="M234.325 386.764C236.154 386.764 237.637 385.193 237.637 383.254C237.637 381.315 236.154 379.743 234.325 379.743C232.496 379.743 231.014 381.315 231.014 383.254C231.014 385.193 232.496 386.764 234.325 386.764Z" fill="#61CAFF"/>
<path d="M254.948 386.764C256.777 386.764 258.26 385.193 258.26 383.254C258.26 381.315 256.777 379.743 254.948 379.743C253.119 379.743 251.637 381.315 251.637 383.254C251.637 385.193 253.119 386.764 254.948 386.764Z" fill="#61CAFF"/>
<path d="M275.837 386.764C277.666 386.764 279.149 385.193 279.149 383.254C279.149 381.315 277.666 379.743 275.837 379.743C274.008 379.743 272.526 381.315 272.526 383.254C272.526 385.193 274.008 386.764 275.837 386.764Z" fill="#61CAFF"/>
<path d="M296.476 386.764C298.304 386.764 299.787 385.193 299.787 383.254C299.787 381.315 298.304 379.743 296.476 379.743C294.647 379.743 293.164 381.315 293.164 383.254C293.164 385.193 294.647 386.764 296.476 386.764Z" fill="#61CAFF"/>
<path d="M317.112 386.764C318.941 386.764 320.424 385.193 320.424 383.254C320.424 381.315 318.941 379.743 317.112 379.743C315.283 379.743 313.801 381.315 313.801 383.254C313.801 385.193 315.283 386.764 317.112 386.764Z" fill="#61CAFF"/>
<path d="M1998.09 1545.63C1999.87 1545.63 2001.4 1547.25 2001.4 1549.14C2001.4 1551.03 1999.87 1552.65 1998.09 1552.65C1996.31 1552.65 1994.78 1551.03 1994.78 1549.14C1994.52 1547.25 1996.05 1545.63 1998.09 1545.63Z" fill="#FF61D6"/>
<path d="M1998.09 1523.48C1999.87 1523.48 2001.4 1525.1 2001.4 1526.99C2001.4 1528.88 1999.87 1530.5 1998.09 1530.5C1996.31 1530.5 1994.78 1528.88 1994.78 1526.99C1994.52 1525.1 1996.05 1523.48 1998.09 1523.48Z" fill="#FF61D6"/>
<path d="M1998.09 1501.61C1999.87 1501.61 2001.4 1503.23 2001.4 1505.12C2001.4 1507.01 1999.87 1508.63 1998.09 1508.63C1996.31 1508.63 1994.78 1507.01 1994.78 1505.12C1994.52 1503.23 1996.05 1501.61 1998.09 1501.61Z" fill="#FF61D6"/>
<path d="M1998.09 1479.73C1999.87 1479.73 2001.4 1481.35 2001.4 1483.24C2001.4 1485.13 1999.87 1486.75 1998.09 1486.75C1996.31 1486.75 1994.78 1485.13 1994.78 1483.24C1994.52 1481.35 1996.05 1479.73 1998.09 1479.73Z" fill="#FF61D6"/>
<path d="M1998.09 1457.86C1999.87 1457.86 2001.4 1459.48 2001.4 1461.37C2001.4 1463.26 1999.87 1464.88 1998.09 1464.88C1996.31 1464.88 1994.78 1463.26 1994.78 1461.37C1994.52 1459.48 1996.05 1457.86 1998.09 1457.86Z" fill="#FF61D6"/>
<path d="M1998.09 1435.71C1999.87 1435.71 2001.4 1437.33 2001.4 1439.22C2001.4 1441.11 1999.87 1442.73 1998.09 1442.73C1996.31 1442.73 1994.78 1441.11 1994.78 1439.22C1994.52 1437.33 1996.05 1435.71 1998.09 1435.71Z" fill="#FF61D6"/>
<path d="M2017.7 1545.63C2019.48 1545.63 2021.01 1547.25 2021.01 1549.14C2021.01 1551.03 2019.48 1552.65 2017.7 1552.65C2015.92 1552.65 2014.39 1551.03 2014.39 1549.14C2014.13 1547.25 2015.66 1545.63 2017.7 1545.63Z" fill="#FF61D6"/>
<path d="M2017.7 1523.48C2019.48 1523.48 2021.01 1525.1 2021.01 1526.99C2021.01 1528.88 2019.48 1530.5 2017.7 1530.5C2015.92 1530.5 2014.39 1528.88 2014.39 1526.99C2014.13 1525.1 2015.66 1523.48 2017.7 1523.48Z" fill="#FF61D6"/>
<path d="M2017.7 1501.61C2019.48 1501.61 2021.01 1503.23 2021.01 1505.12C2021.01 1507.01 2019.48 1508.63 2017.7 1508.63C2015.92 1508.63 2014.39 1507.01 2014.39 1505.12C2014.13 1503.23 2015.66 1501.61 2017.7 1501.61Z" fill="#FF61D6"/>
<path d="M2017.7 1479.73C2019.48 1479.73 2021.01 1481.35 2021.01 1483.24C2021.01 1485.13 2019.48 1486.75 2017.7 1486.75C2015.92 1486.75 2014.39 1485.13 2014.39 1483.24C2014.13 1481.35 2015.66 1479.73 2017.7 1479.73Z" fill="#FF61D6"/>
<path d="M2017.7 1457.86C2019.48 1457.86 2021.01 1459.48 2021.01 1461.37C2021.01 1463.26 2019.48 1464.88 2017.7 1464.88C2015.92 1464.88 2014.39 1463.26 2014.39 1461.37C2014.13 1459.48 2015.66 1457.86 2017.7 1457.86Z" fill="#FF61D6"/>
<path d="M2017.7 1435.71C2019.48 1435.71 2021.01 1437.33 2021.01 1439.22C2021.01 1441.11 2019.48 1442.73 2017.7 1442.73C2015.92 1442.73 2014.39 1441.11 2014.39 1439.22C2014.13 1437.33 2015.66 1435.71 2017.7 1435.71Z" fill="#FF61D6"/>
<path d="M2037.32 1545.63C2039.1 1545.63 2040.63 1547.25 2040.63 1549.14C2040.63 1551.03 2039.1 1552.65 2037.32 1552.65C2035.53 1552.65 2034.01 1551.03 2034.01 1549.14C2033.75 1547.25 2035.28 1545.63 2037.32 1545.63Z" fill="#FF61D6"/>
<path d="M2037.32 1523.48C2039.1 1523.48 2040.63 1525.1 2040.63 1526.99C2040.63 1528.88 2039.1 1530.5 2037.32 1530.5C2035.53 1530.5 2034.01 1528.88 2034.01 1526.99C2033.75 1525.1 2035.28 1523.48 2037.32 1523.48Z" fill="#FF61D6"/>
<path d="M2037.32 1501.61C2039.1 1501.61 2040.63 1503.23 2040.63 1505.12C2040.63 1507.01 2039.1 1508.63 2037.32 1508.63C2035.53 1508.63 2034.01 1507.01 2034.01 1505.12C2033.75 1503.23 2035.28 1501.61 2037.32 1501.61Z" fill="#FF61D6"/>
<path d="M2037.32 1479.73C2039.1 1479.73 2040.63 1481.35 2040.63 1483.24C2040.63 1485.13 2039.1 1486.75 2037.32 1486.75C2035.53 1486.75 2034.01 1485.13 2034.01 1483.24C2033.75 1481.35 2035.28 1479.73 2037.32 1479.73Z" fill="#FF61D6"/>
<path d="M2037.32 1457.86C2039.1 1457.86 2040.63 1459.48 2040.63 1461.37C2040.63 1463.26 2039.1 1464.88 2037.32 1464.88C2035.53 1464.88 2034.01 1463.26 2034.01 1461.37C2033.75 1459.48 2035.28 1457.86 2037.32 1457.86Z" fill="#FF61D6"/>
<path d="M2037.32 1435.71C2039.1 1435.71 2040.63 1437.33 2040.63 1439.22C2040.63 1441.11 2039.1 1442.73 2037.32 1442.73C2035.53 1442.73 2034.01 1441.11 2034.01 1439.22C2033.75 1437.33 2035.28 1435.71 2037.32 1435.71Z" fill="#FF61D6"/>
<path d="M323.994 1582.08C325.777 1582.08 327.305 1583.7 327.305 1585.59C327.305 1587.48 325.777 1589.1 323.994 1589.1C322.21 1589.1 320.682 1587.48 320.682 1585.59C320.427 1583.7 321.956 1582.08 323.994 1582.08Z" fill="#FF61D6"/>
<path d="M323.994 1560.21C325.777 1560.21 327.305 1561.83 327.305 1563.72C327.305 1565.61 325.777 1567.23 323.994 1567.23C322.21 1567.23 320.682 1565.61 320.682 1563.72C320.427 1561.83 321.956 1560.21 323.994 1560.21Z" fill="#FF61D6"/>
<path d="M323.994 1538.06C325.777 1538.06 327.305 1539.68 327.305 1541.57C327.305 1543.46 325.777 1545.08 323.994 1545.08C322.21 1545.08 320.682 1543.46 320.682 1541.57C320.427 1539.68 321.956 1538.06 323.994 1538.06Z" fill="#FF61D6"/>
<path d="M323.994 1516.19C325.777 1516.19 327.305 1517.81 327.305 1519.7C327.305 1521.59 325.777 1523.21 323.994 1523.21C322.21 1523.21 320.682 1521.59 320.682 1519.7C320.427 1517.81 321.956 1516.19 323.994 1516.19Z" fill="#FF61D6"/>
<path d="M323.994 1494.31C325.777 1494.31 327.305 1495.93 327.305 1497.82C327.305 1499.71 325.777 1501.33 323.994 1501.33C322.21 1501.33 320.682 1499.71 320.682 1497.82C320.427 1495.93 321.956 1494.31 323.994 1494.31Z" fill="#FF61D6"/>
<path d="M323.994 1472.44C325.777 1472.44 327.305 1474.06 327.305 1475.95C327.305 1477.84 325.777 1479.46 323.994 1479.46C322.21 1479.46 320.682 1477.84 320.682 1475.95C320.427 1474.06 321.956 1472.44 323.994 1472.44Z" fill="#FF61D6"/>
<path d="M343.61 1589.1C345.439 1589.1 346.922 1587.53 346.922 1585.59C346.922 1583.65 345.439 1582.08 343.61 1582.08C341.781 1582.08 340.299 1583.65 340.299 1585.59C340.299 1587.53 341.781 1589.1 343.61 1589.1Z" fill="#FF61D6"/>
<path d="M343.61 1567.23C345.439 1567.23 346.922 1565.66 346.922 1563.72C346.922 1561.78 345.439 1560.21 343.61 1560.21C341.781 1560.21 340.299 1561.78 340.299 1563.72C340.299 1565.66 341.781 1567.23 343.61 1567.23Z" fill="#FF61D6"/>
<path d="M343.61 1545.36C345.439 1545.36 346.922 1543.78 346.922 1541.85C346.922 1539.91 345.439 1538.33 343.61 1538.33C341.781 1538.33 340.299 1539.91 340.299 1541.85C340.299 1543.78 341.781 1545.36 343.61 1545.36Z" fill="#FF61D6"/>
<path d="M343.61 1523.21C345.439 1523.21 346.922 1521.64 346.922 1519.7C346.922 1517.76 345.439 1516.19 343.61 1516.19C341.781 1516.19 340.299 1517.76 340.299 1519.7C340.299 1521.64 341.781 1523.21 343.61 1523.21Z" fill="#FF61D6"/>
<path d="M343.61 1501.33C345.439 1501.33 346.922 1499.76 346.922 1497.82C346.922 1495.88 345.439 1494.31 343.61 1494.31C341.781 1494.31 340.299 1495.88 340.299 1497.82C340.299 1499.76 341.781 1501.33 343.61 1501.33Z" fill="#FF61D6"/>
<path d="M343.61 1479.46C345.439 1479.46 346.922 1477.89 346.922 1475.95C346.922 1474.01 345.439 1472.44 343.61 1472.44C341.781 1472.44 340.299 1474.01 340.299 1475.95C340.299 1477.89 341.781 1479.46 343.61 1479.46Z" fill="#FF61D6"/>
<path d="M363.22 1582.08C365.003 1582.08 366.531 1583.7 366.531 1585.59C366.531 1587.48 365.003 1589.1 363.22 1589.1C361.437 1589.1 359.908 1587.48 359.908 1585.59C359.908 1583.7 361.437 1582.08 363.22 1582.08Z" fill="#FF61D6"/>
<path d="M363.22 1560.21C365.003 1560.21 366.531 1561.83 366.531 1563.72C366.531 1565.61 365.003 1567.23 363.22 1567.23C361.437 1567.23 359.908 1565.61 359.908 1563.72C359.908 1561.83 361.437 1560.21 363.22 1560.21Z" fill="#FF61D6"/>
<path d="M363.22 1538.06C365.003 1538.06 366.531 1539.68 366.531 1541.57C366.531 1543.46 365.003 1545.08 363.22 1545.08C361.437 1545.08 359.908 1543.46 359.908 1541.57C359.908 1539.68 361.437 1538.06 363.22 1538.06Z" fill="#FF61D6"/>
<path d="M363.22 1516.19C365.003 1516.19 366.531 1517.81 366.531 1519.7C366.531 1521.59 365.003 1523.21 363.22 1523.21C361.437 1523.21 359.908 1521.59 359.908 1519.7C359.908 1517.81 361.437 1516.19 363.22 1516.19Z" fill="#FF61D6"/>
<path d="M363.22 1494.31C365.003 1494.31 366.531 1495.93 366.531 1497.82C366.531 1499.71 365.003 1501.33 363.22 1501.33C361.437 1501.33 359.908 1499.71 359.908 1497.82C359.908 1495.93 361.437 1494.31 363.22 1494.31Z" fill="#FF61D6"/>
<path d="M363.22 1472.44C365.003 1472.44 366.531 1474.06 366.531 1475.95C366.531 1477.84 365.003 1479.46 363.22 1479.46C361.437 1479.46 359.908 1477.84 359.908 1475.95C359.908 1474.06 361.437 1472.44 363.22 1472.44Z" fill="#FF61D6"/>
<path d="M1664.65 368.936C1666.43 368.936 1667.96 370.556 1667.96 372.446C1667.96 374.337 1666.43 375.957 1664.65 375.957C1662.87 375.957 1661.34 374.337 1661.34 372.446C1661.34 370.556 1662.87 368.936 1664.65 368.936Z" fill="#FF61D6"/>
<path d="M1664.65 347.062C1666.43 347.062 1667.96 348.683 1667.96 350.573C1667.96 352.464 1666.43 354.084 1664.65 354.084C1662.87 354.084 1661.34 352.464 1661.34 350.573C1661.34 348.683 1662.87 347.062 1664.65 347.062Z" fill="#FF61D6"/>
<path d="M1664.65 324.916C1666.43 324.916 1667.96 326.536 1667.96 328.426C1667.96 330.317 1666.43 331.937 1664.65 331.937C1662.87 331.937 1661.34 330.317 1661.34 328.426C1661.34 326.536 1662.87 324.916 1664.65 324.916Z" fill="#FF61D6"/>
<path d="M1664.65 303.041C1666.43 303.041 1667.96 304.661 1667.96 306.552C1667.96 308.442 1666.43 310.063 1664.65 310.063C1662.87 310.063 1661.34 308.712 1661.34 306.822C1661.34 304.931 1662.87 303.041 1664.65 303.041Z" fill="#FF61D6"/>
<path d="M1664.65 281.164C1666.43 281.164 1667.96 282.784 1667.96 284.675C1667.96 286.565 1666.43 288.186 1664.65 288.186C1662.87 288.186 1661.34 286.835 1661.34 284.675C1661.34 282.514 1662.87 281.164 1664.65 281.164Z" fill="#FF61D6"/>
<path d="M1664.65 259.29C1666.43 259.29 1667.96 260.91 1667.96 262.8C1667.96 264.691 1666.43 266.311 1664.65 266.311C1662.87 266.311 1661.34 264.691 1661.34 262.8C1661.34 260.91 1662.87 259.29 1664.65 259.29Z" fill="#FF61D6"/>
<path d="M1684.26 375.957C1686.09 375.957 1687.57 374.385 1687.57 372.446C1687.57 370.507 1686.09 368.936 1684.26 368.936C1682.43 368.936 1680.95 370.507 1680.95 372.446C1680.95 374.385 1682.43 375.957 1684.26 375.957Z" fill="#FF61D6"/>
<path d="M1684.26 354.084C1686.09 354.084 1687.57 352.512 1687.57 350.573C1687.57 348.634 1686.09 347.062 1684.26 347.062C1682.43 347.062 1680.95 348.634 1680.95 350.573C1680.95 352.512 1682.43 354.084 1684.26 354.084Z" fill="#FF61D6"/>
<path d="M1684.26 332.209C1686.09 332.209 1687.57 330.637 1687.57 328.698C1687.57 326.759 1686.09 325.188 1684.26 325.188C1682.43 325.188 1680.95 326.759 1680.95 328.698C1680.95 330.637 1682.43 332.209 1684.26 332.209Z" fill="#FF61D6"/>
<path d="M1684.26 310.331C1686.09 310.331 1687.57 308.759 1687.57 306.82C1687.57 304.881 1686.09 303.31 1684.26 303.31C1682.43 303.31 1680.95 304.881 1680.95 306.82C1680.95 308.759 1682.43 310.331 1684.26 310.331Z" fill="#FF61D6"/>
<path d="M1684.26 288.186C1686.09 288.186 1687.57 286.614 1687.57 284.675C1687.57 282.736 1686.09 281.164 1684.26 281.164C1682.43 281.164 1680.95 282.736 1680.95 284.675C1680.95 286.614 1682.43 288.186 1684.26 288.186Z" fill="#FF61D6"/>
<path d="M1684.26 266.311C1686.09 266.311 1687.57 264.739 1687.57 262.8C1687.57 260.861 1686.09 259.29 1684.26 259.29C1682.43 259.29 1680.95 260.861 1680.95 262.8C1680.95 264.739 1682.43 266.311 1684.26 266.311Z" fill="#FF61D6"/>
<path d="M1703.87 368.936C1705.66 368.936 1707.18 370.556 1707.18 372.446C1707.18 374.337 1705.66 375.957 1703.87 375.957C1702.09 375.957 1700.56 374.337 1700.56 372.446C1700.56 370.556 1702.09 368.936 1703.87 368.936Z" fill="#FF61D6"/>
<path d="M1703.87 347.062C1705.66 347.062 1707.18 348.683 1707.18 350.573C1707.18 352.464 1705.66 354.084 1703.87 354.084C1702.09 354.084 1700.56 352.464 1700.56 350.573C1700.56 348.683 1702.09 347.062 1703.87 347.062Z" fill="#FF61D6"/>
<path d="M1703.87 324.916C1705.66 324.916 1707.18 326.536 1707.18 328.426C1707.18 330.317 1705.66 331.937 1703.87 331.937C1702.09 331.937 1700.56 330.317 1700.56 328.426C1700.56 326.536 1702.09 324.916 1703.87 324.916Z" fill="#FF61D6"/>
<path d="M1703.87 303.041C1705.66 303.041 1707.18 304.661 1707.18 306.552C1707.18 308.442 1705.66 310.063 1703.87 310.063C1702.09 310.063 1700.56 308.442 1700.56 306.552C1700.56 304.661 1702.09 303.041 1703.87 303.041Z" fill="#FF61D6"/>
<path d="M1703.87 281.164C1705.66 281.164 1707.18 282.784 1707.18 284.675C1707.18 286.565 1705.66 288.186 1703.87 288.186C1702.09 288.186 1700.56 286.565 1700.56 284.675C1700.56 282.784 1702.09 281.164 1703.87 281.164Z" fill="#FF61D6"/>
<path d="M1703.87 259.29C1705.66 259.29 1707.18 260.91 1707.18 262.8C1707.18 264.691 1705.66 266.311 1703.87 266.311C1702.09 266.311 1700.56 264.691 1700.56 262.8C1700.56 260.91 1702.09 259.29 1703.87 259.29Z" fill="#FF61D6"/>
<path d="M2239.58 771.611C2239.58 769.72 2241.11 768.1 2242.89 768.1C2244.68 768.1 2246.2 769.72 2246.2 771.611C2246.2 773.501 2244.68 775.122 2242.89 775.122C2241.11 775.122 2239.58 773.501 2239.58 771.611Z" fill="#FF61D6"/>
<path d="M2218.95 771.611C2218.95 769.72 2220.47 768.1 2222.26 768.1C2224.04 768.1 2225.57 769.72 2225.57 771.611C2225.57 773.501 2224.04 775.122 2222.26 775.122C2220.47 775.122 2218.95 773.501 2218.95 771.611Z" fill="#FF61D6"/>
<path d="M2198.31 771.611C2198.31 769.72 2199.83 768.1 2201.62 768.1C2203.4 768.1 2204.93 769.72 2204.93 771.611C2204.93 773.501 2203.4 775.122 2201.62 775.122C2199.83 775.122 2198.31 773.501 2198.31 771.611Z" fill="#FF61D6"/>
<path d="M2177.68 771.611C2177.68 769.72 2179.21 768.1 2180.99 768.1C2182.77 768.1 2184.3 769.72 2184.3 771.611C2184.3 773.501 2182.77 775.122 2180.99 775.122C2179.21 775.122 2177.68 773.501 2177.68 771.611Z" fill="#FF61D6"/>
<path d="M2156.79 771.611C2156.79 769.72 2158.32 768.1 2160.11 768.1C2161.89 768.1 2163.42 769.72 2163.42 771.611C2163.42 773.501 2161.89 775.122 2160.11 775.122C2158.32 775.122 2156.79 773.501 2156.79 771.611Z" fill="#FF61D6"/>
<path d="M2136.16 771.611C2136.16 769.72 2137.68 768.1 2139.47 768.1C2141.25 768.1 2142.78 769.72 2142.78 771.611C2142.78 773.501 2141.25 775.122 2139.47 775.122C2137.68 775.122 2136.16 773.501 2136.16 771.611Z" fill="#FF61D6"/>
<path d="M2239.58 750.815C2239.58 748.924 2241.11 747.304 2242.89 747.304C2244.68 747.304 2246.2 748.924 2246.2 750.815C2246.2 752.705 2244.68 754.325 2242.89 754.325C2241.11 754.325 2239.58 752.705 2239.58 750.815Z" fill="#FF61D6"/>
<path d="M2218.95 750.815C2218.95 748.924 2220.47 747.304 2222.26 747.304C2224.04 747.304 2225.57 748.924 2225.57 750.815C2225.57 752.705 2224.04 754.325 2222.26 754.325C2220.47 754.325 2218.95 752.705 2218.95 750.815Z" fill="#FF61D6"/>
<path d="M2198.31 750.815C2198.31 748.924 2199.83 747.304 2201.62 747.304C2203.4 747.304 2204.93 748.924 2204.93 750.815C2204.93 752.705 2203.4 754.325 2201.62 754.325C2199.83 754.325 2198.31 752.705 2198.31 750.815Z" fill="#FF61D6"/>
<path d="M2177.68 750.815C2177.68 748.924 2179.21 747.304 2180.99 747.304C2182.77 747.304 2184.3 748.924 2184.3 750.815C2184.3 752.705 2182.77 754.325 2180.99 754.325C2179.21 754.325 2177.68 752.705 2177.68 750.815Z" fill="#FF61D6"/>
<path d="M2156.79 750.815C2156.79 748.924 2158.32 747.304 2160.11 747.304C2161.89 747.304 2163.42 748.924 2163.42 750.815C2163.42 752.705 2161.89 754.325 2160.11 754.325C2158.32 754.325 2156.79 752.705 2156.79 750.815Z" fill="#FF61D6"/>
<path d="M2136.16 750.815C2136.16 748.924 2137.68 747.304 2139.47 747.304C2141.25 747.304 2142.78 748.924 2142.78 750.815C2142.78 752.705 2141.25 754.325 2139.47 754.325C2137.68 754.325 2136.16 752.705 2136.16 750.815Z" fill="#FF61D6"/>
<path d="M2239.58 730.021C2239.58 728.13 2241.11 726.51 2242.89 726.51C2244.68 726.51 2246.2 728.13 2246.2 730.021C2246.2 731.911 2244.68 733.532 2242.89 733.532C2241.11 733.532 2239.58 731.911 2239.58 730.021Z" fill="#FF61D6"/>
<path d="M2218.95 730.021C2218.95 728.13 2220.47 726.51 2222.26 726.51C2224.04 726.51 2225.57 728.13 2225.57 730.021C2225.57 731.911 2224.04 733.532 2222.26 733.532C2220.47 733.532 2218.95 731.911 2218.95 730.021Z" fill="#FF61D6"/>
<path d="M2198.31 730.021C2198.31 728.13 2199.83 726.51 2201.62 726.51C2203.4 726.51 2204.93 728.13 2204.93 730.021C2204.93 731.911 2203.4 733.532 2201.62 733.532C2199.83 733.532 2198.31 731.911 2198.31 730.021Z" fill="#FF61D6"/>
<path d="M2177.68 730.021C2177.68 728.13 2179.21 726.51 2180.99 726.51C2182.77 726.51 2184.3 728.13 2184.3 730.021C2184.3 731.911 2182.77 733.532 2180.99 733.532C2179.21 733.532 2177.68 731.911 2177.68 730.021Z" fill="#FF61D6"/>
<path d="M2156.79 730.021C2156.79 728.13 2158.32 726.51 2160.11 726.51C2161.89 726.51 2163.42 728.13 2163.42 730.021C2163.42 731.911 2161.89 733.532 2160.11 733.532C2158.32 733.532 2156.79 731.911 2156.79 730.021Z" fill="#FF61D6"/>
<path d="M2136.16 730.021C2136.16 728.13 2137.68 726.51 2139.47 726.51C2141.25 726.51 2142.78 728.13 2142.78 730.021C2142.78 731.911 2141.25 733.532 2139.47 733.532C2137.68 733.532 2136.16 731.911 2136.16 730.021Z" fill="#FF61D6"/>
<g opacity="0.74">
<path d="M1899.26 470.216H1893.65V476.157H1899.26V470.216Z" fill="#444444"/>
<path d="M1899.26 511.807H1893.65V517.749H1899.26V511.807Z" fill="#444444"/>
<path d="M1899.26 553.668H1893.65V559.61H1899.26V553.668Z" fill="#444444"/>
<path d="M1899.26 595.257H1893.65V601.199H1899.26V595.257Z" fill="#444444"/>
<path d="M1899.26 636.848H1893.65V642.79H1899.26V636.848Z" fill="#444444"/>
</g>
<g opacity="0.74">
<path d="M538.989 1302.29H533.385V1308.24H538.989V1302.29Z" fill="#444444"/>
<path d="M538.989 1344.16H533.385V1350.1H538.989V1344.16Z" fill="#444444"/>
<path d="M538.989 1385.75H533.385V1391.69H538.989V1385.75Z" fill="#444444"/>
<path d="M538.989 1427.34H533.385V1433.28H538.989V1427.34Z" fill="#444444"/>
<path d="M538.989 1469.2H533.385V1475.14H538.989V1469.2Z" fill="#444444"/>
</g>
<g opacity="0.74">
<path d="M366.032 251.73H360.428V257.671H366.032V251.73Z" fill="#444444"/>
<path d="M366.032 293.591H360.428V299.533H366.032V293.591Z" fill="#444444"/>
<path d="M366.032 335.182H360.428V341.124H366.032V335.182Z" fill="#444444"/>
<path d="M366.032 376.771H360.428V382.713H366.032V376.771Z" fill="#444444"/>
<path d="M366.032 418.631H360.428V424.573H366.032V418.631Z" fill="#444444"/>
</g>
<g opacity="0.74">
<path d="M2122.15 1260.7H2116.55V1266.64H2122.15V1260.7Z" fill="#444444"/>
<path d="M2122.15 1302.29H2116.55V1308.23H2122.15V1302.29Z" fill="#444444"/>
<path d="M2122.15 1344.15H2116.55V1350.1H2122.15V1344.15Z" fill="#444444"/>
<path d="M2122.15 1385.74H2116.55V1391.68H2122.15V1385.74Z" fill="#444444"/>
<path d="M2122.15 1427.33H2116.55V1433.28H2122.15V1427.33Z" fill="#444444"/>
</g>
<path d="M1913.26 835.618H1885.24V845.881H1913.26V835.618Z" fill="#FF61D6"/>
<path d="M1894.24 825.865V855.572H1903.92V825.865H1894.24Z" fill="#FF61D6"/>
<path d="M1062.97 1562.37H1034.95V1572.63H1062.97V1562.37Z" fill="#FF61D6"/>
<path d="M1044.08 1552.75V1582.46H1053.76V1552.75H1044.08Z" fill="#FF61D6"/>
<path d="M863.259 596.066H835.238V606.329H863.259V596.066Z" fill="#61CAFF"/>
<path d="M844.424 586.35V616.057H854.104V586.35H844.424Z" fill="#61CAFF"/>
<path opacity="0.79" d="M403.978 625.775H394.807V616.053H385.127V625.775H375.957V636.038H385.127V645.76H394.807V636.038H403.978V625.775Z" fill="#444444"/>
<path opacity="0.79" d="M291.126 1401.41H281.956V1391.69H272.276V1401.41H263.105V1411.67H272.276V1421.39H281.956V1411.67H291.126V1401.41Z" fill="#444444"/>
<path opacity="0.79" d="M1194.67 1481.89H1185.5V1472.17H1175.82V1481.89H1166.65V1491.88H1175.82V1501.88H1185.5V1491.88H1194.67V1481.89Z" fill="#444444"/>
<path opacity="0.79" d="M602.417 1237.48H593.247V1227.76H583.567V1237.48H574.396V1247.74H583.567V1257.46H593.247V1247.74H602.417V1237.48Z" fill="#444444"/>
<path opacity="0.79" d="M1927.27 1297.16H1917.85V1287.44H1908.42V1297.16H1899.25V1307.43H1908.42V1317.15H1917.85V1307.43H1927.27V1297.16Z" fill="#444444"/>
<g opacity="0.79">
<path d="M2182.52 449.417H2154.5V459.68H2182.52V449.417Z" fill="#444444"/>
<path d="M2173.35 439.695H2163.67V469.403H2173.35V439.695Z" fill="#444444"/>
</g>
<path opacity="0.79" d="M1562.24 479.126H1553.07V469.403H1543.64V479.126H1534.22V489.118H1543.64V498.841H1553.07V489.118H1562.24V479.126Z" fill="#444444"/>
<path opacity="0.79" d="M899.942 319.248H890.771V309.525H881.346V319.248H872.176V329.51H881.346V339.233H890.771V329.51H899.942V319.248Z" fill="#444444"/>
<path d="M576.948 745.683H548.928V755.945H576.948V745.683Z" fill="#F2F2F2"/>
<path d="M558.092 735.919V765.626H567.772V735.919H558.092Z" fill="#F2F2F2"/>
<path d="M2050.57 1088.13H2022.55V1098.39H2050.57V1088.13Z" fill="#F2F2F2"/>
<path d="M2031.74 1078.26V1107.97H2041.42V1078.26H2031.74Z" fill="#F2F2F2"/>
<path d="M1562.24 1503.49H1534.22V1513.76H1562.24V1503.49Z" fill="#F2F2F2"/>
<path d="M1543.56 1493.84V1523.54H1553.24V1493.84H1543.56Z" fill="#F2F2F2"/>
<path d="M2150.17 1576.95H2122.15V1587.22H2150.17V1576.95Z" fill="#61CAFF"/>
<path d="M2131.4 1567.23V1596.94H2141.08V1567.23H2131.4Z" fill="#61CAFF"/>
<path d="M499.757 291.43H471.736V301.693H499.757V291.43Z" fill="#61CAFF"/>
<path d="M481.15 281.664V311.372H490.83V281.664H481.15Z" fill="#61CAFF"/>
<path d="M1995.54 678.437L2132.85 525.849" stroke="#444444" stroke-width="0.2097" stroke-miterlimit="10"/>
<path d="M2036.81 671.415L2173.85 519.097" stroke="#444444" stroke-width="0.2097" stroke-miterlimit="10"/>
<path d="M2078.07 664.664L2215.12 512.345" stroke="#444444" stroke-width="0.2097" stroke-miterlimit="10"/>
<path d="M1496.01 1427.07L1633.31 1274.75" stroke="#444444" stroke-width="0.2097" stroke-miterlimit="10"/>
<path d="M1537.28 1420.31L1674.58 1267.73" stroke="#444444" stroke-width="0.2097" stroke-miterlimit="10"/>
<path d="M1578.54 1413.56L1715.59 1260.98" stroke="#444444" stroke-width="0.2097" stroke-miterlimit="10"/>
<path d="M788.879 1687.95L926.18 1535.36" stroke="#444444" stroke-width="0.2097" stroke-miterlimit="10"/>
<path d="M830.141 1681.2L967.187 1528.61" stroke="#444444" stroke-width="0.2097" stroke-miterlimit="10"/>
<path d="M871.408 1674.18L1008.45 1521.86" stroke="#444444" stroke-width="0.2097" stroke-miterlimit="10"/>
<path d="M494.402 414.309L631.448 261.991" stroke="#444444" stroke-width="0.2097" stroke-miterlimit="10"/>
<path d="M535.664 407.559L672.71 254.97" stroke="#444444" stroke-width="0.2097" stroke-miterlimit="10"/>
<path d="M576.682 400.537L713.982 248.219" stroke="#444444" stroke-width="0.2097" stroke-miterlimit="10"/>
<path d="M1397.43 421.062L1534.48 268.743" stroke="#444444" stroke-width="0.2097" stroke-miterlimit="10"/>
<path d="M1438.45 414.311L1575.75 261.992" stroke="#444444" stroke-width="0.2097" stroke-miterlimit="10"/>
<path d="M1479.71 407.56L1617.01 254.971" stroke="#444444" stroke-width="0.2097" stroke-miterlimit="10"/>
<path d="M169.377 1279.07L306.423 1126.75" stroke="#444444" stroke-width="0.2097" stroke-miterlimit="10"/>
<path d="M210.639 1272.32L347.685 1119.73" stroke="#444444" stroke-width="0.2097" stroke-miterlimit="10"/>
<path d="M251.906 1265.57L388.952 1112.98" stroke="#444444" stroke-width="0.2097" stroke-miterlimit="10"/>
<path d="M1883.94 324.225C1898.47 308.827 1898.47 283.861 1883.94 268.463C1869.42 253.065 1845.87 253.065 1831.35 268.463C1816.82 283.861 1816.82 308.826 1831.35 324.225C1845.87 339.623 1869.42 339.623 1883.94 324.225Z" fill="#61CAFF"/>
<path d="M419.991 908.876C437.464 897.428 442.876 873.13 432.078 854.605C421.28 836.08 398.362 830.342 380.888 841.79C363.415 853.238 358.003 877.536 368.801 896.062C379.599 914.587 402.517 920.324 419.991 908.876Z" fill="#61CAFF"/>
<path d="M1721.45 1678.77C1741.99 1678.77 1758.65 1661.12 1758.65 1639.34C1758.65 1617.56 1741.99 1599.91 1721.45 1599.91C1700.91 1599.91 1684.26 1617.56 1684.26 1639.34C1684.26 1661.12 1700.91 1678.77 1721.45 1678.77Z" fill="#FF61D6"/>
<path d="M621.777 1694.97C642.317 1694.97 658.968 1677.32 658.968 1655.54C658.968 1633.77 642.317 1616.11 621.777 1616.11C601.237 1616.11 584.586 1633.77 584.586 1655.54C584.586 1677.32 601.237 1694.97 621.777 1694.97Z" fill="#FF61D6"/>
</g>
</svg>
