<svg width="21" height="24" viewBox="0 0 21 24" fill="none" xmlns="http://www.w3.org/2000/svg">
<path fill-rule="evenodd" clip-rule="evenodd" d="M0.479228 0.311944C0.476388 0.314632 0.473559 0.317338 0.470741 0.32006L0.487123 0.303253C0.701436 0.105654 0.975902 0 1.29112 0C1.59853 0 1.94504 0.100773 2.31066 0.31445L15.5966 8.05907L20.0467 10.6531C21.3173 11.3939 21.3173 12.6069 20.0467 13.3487L15.5966 15.9427L15.5359 15.9772L2.31066 23.6864C1.75846 24.0083 1.25008 24.0736 0.851826 23.9224C0.717026 23.8712 0.594815 23.7952 0.487798 23.696L0.470282 23.6794C0.453366 23.663 0.436845 23.6461 0.42073 23.6286C0.156067 23.3421 -0.000366211 22.897 -0.000366211 22.3185V1.68236C-0.000366211 1.10477 0.156067 0.658759 0.42073 0.371369C0.484918 0.306583 0.482067 0.309255 0.479228 0.311944C0.459176 0.330929 0.439671 0.350741 0.42073 0.371369L11.7558 12.0004L0.42073 23.6286L15.5966 8.05907L11.7558 12.0004L0.479228 0.311944Z" fill="white"/>
</svg>
