<svg width="32" height="32" viewBox="0 0 32 32" fill="none" xmlns="http://www.w3.org/2000/svg">
<g clip-path="url(#clip0_208_426)">
<path d="M31.625 16.0552C31.625 24.6843 24.6291 31.6802 16 31.6802C7.37081 31.6802 0.375 24.6843 0.375 16.0552C0.375 7.42599 7.37081 0.430176 16 0.430176C24.6291 0.430176 31.625 7.42599 31.625 16.0552Z" fill="#1296AD"/>
<path d="M25.335 17.3119V23.7541H21.6004V17.7443C21.6004 16.2348 21.0619 15.2039 19.7086 15.2039C18.6778 15.2039 18.0644 15.8988 17.7937 16.5707C17.6945 16.8101 17.67 17.1433 17.67 17.4806V23.7542H13.9341C13.9341 23.7542 13.9844 13.5746 13.9341 12.5208H17.67V14.1132C17.6632 14.1254 17.6524 14.1375 17.6455 14.1498H17.67V14.1132C18.1664 13.349 19.0517 12.2568 21.036 12.2568C23.4935 12.2568 25.335 13.8629 25.335 17.3119ZM10.0282 7.10645C8.74979 7.10645 7.91479 7.94557 7.91479 9.0472C7.91479 10.1256 8.72536 10.9878 9.9793 10.9878H10.0024C11.3053 10.9878 12.1159 10.1257 12.1159 9.0472C12.0914 7.94563 11.3053 7.10645 10.0282 7.10645ZM8.13648 23.7542H11.8697V12.5208H8.13648V23.7542Z" fill="white"/>
</g>
<defs>
<clipPath id="clip0_208_426">
<rect width="32" height="32" fill="white"/>
</clipPath>
</defs>
</svg>
